<svg xmlns="http://www.w3.org/2000/svg" xmlns:xlink="http://www.w3.org/1999/xlink" width="1200px" height="1200px" viewBox="0 0 1200 1200">
  <g id="I8q48FywGO5USPsq9kV2d">
<g style="">
		<g id="ixX9DpbFCrtzu2eVE-Tak">
<path style="stroke: rgb(193,193,193); stroke-width: 0; stroke-dasharray: none; stroke-linecap: butt; stroke-dashoffset: 0; stroke-linejoin: miter; stroke-miterlimit: 4; fill: rgb(0,0,0); fill-rule: nonzero; opacity: 1;" transform="matrix(0.521 0 0 0.521 1429.853876 232.045943) matrix(1 0 0 1 0 0)  translate(-529.080322, -516.084198)" d="M 287.92 897.73 C 282.99 894.40 280.30 889.78 278.59 881.68 C 277.76 877.73 272.36 851.33 266.60 823.00 C 241.45 699.31 204.49 521.43 193.37 470.50 C 175.65 389.30 151.21 267.86 149.42 252.03 C 148.91 247.45 149.15 244.89 150.43 241.55 C 152.38 236.45 158.22 230.74 163.12 229.14 C 166.22 228.13 189.97 223.57 216.00 218.99 C 224.57 217.48 287.46 205.93 348.25 194.70 L 359.99 192.53 L 362.03 186.41 C 364.56 178.81 368.79 171.96 374.84 165.65 C 384.17 155.93 386.79 154.96 422.00 148.31 C 440.16 144.88 449.09 143.65 456.50 143.59 C 468.21 143.48 470.85 144.54 482.81 154.14 C 486.83 157.36 490.50 160.00 490.97 160.00 C 491.79 160.00 515.85 155.53 599.00 139.92 C 643.76 131.53 652.13 130.71 659.81 134.01 C 665.44 136.44 669.81 140.74 673.03 147.05 C 674.15 149.25 679.06 160.60 683.95 172.27 C 688.84 183.95 699.68 209.70 708.03 229.50 C 738.73 302.23 751.87 334.74 795.35 445.50 C 806.58 474.10 822.37 514.15 830.44 534.50 C 838.51 554.85 857.02 601.88 871.58 639.00 C 886.13 676.12 900.51 711.67 903.53 718.00 C 908.16 727.70 909.01 730.36 908.99 735.00 C 908.93 745.19 902.50 754.17 892.62 757.87 C 889.80 758.92 861.62 765.89 830.00 773.35 C 798.38 780.81 757.42 790.50 739.00 794.88 C 720.58 799.26 675.80 809.89 639.50 818.49 C 603.20 827.09 551.45 839.47 524.50 845.99 C 497.55 852.52 454.80 862.82 429.50 868.89 C 404.20 874.96 371.57 882.83 357.00 886.38 C 342.43 889.94 324.88 894.00 318.00 895.42 C 311.12 896.83 303.93 898.45 302.01 899.00 C 296.35 900.62 291.58 900.19 287.92 897.73 M 305.68 887.07 C 301.41 882.35 301.29 881.91 295.01 851.00 C 287.89 815.99 275.56 756.26 269.10 725.50 C 264.45 703.35 251.00 639.12 241.58 594.00 C 237.96 576.67 234.10 558.67 233.00 554.00 C 231.90 549.33 229.63 538.98 227.95 531.00 C 219.95 493.08 217.80 482.99 213.49 463.00 C 203.38 416.03 196.41 382.59 184.54 324.00 C 179.92 301.18 174.73 275.81 173.02 267.64 C 167.98 243.58 167.97 242.01 172.86 231.50 C 173.12 230.95 172.51 231.18 171.50 232.00 C 168.72 234.30 166.05 241.01 166.02 245.79 C 166.01 248.15 167.38 256.70 169.06 264.79 C 170.74 272.88 176.79 302.68 182.49 331.00 C 194.46 390.39 200.88 421.07 218.89 505.00 C 233.22 571.75 244.29 623.88 251.93 660.50 C 254.68 673.70 259.67 697.55 263.03 713.50 C 266.39 729.45 275.39 772.82 283.04 809.88 C 291.31 849.92 297.78 878.98 298.99 881.49 C 300.12 883.81 302.71 886.90 304.76 888.35 C 309.73 891.89 309.87 891.70 305.68 887.07 M 353.50 846.90 C 407.08 834.57 426.75 829.97 456.50 822.81 C 499.48 812.46 586.82 791.84 648.50 777.49 C 675.45 771.22 706.27 764.02 717.00 761.50 C 727.73 758.97 748.20 754.19 762.50 750.88 C 776.80 747.56 803.35 741.33 821.50 737.03 C 839.65 732.72 859.45 728.18 865.50 726.93 C 871.55 725.68 876.61 724.59 876.74 724.50 C 877.81 723.83 862.23 681.79 839.48 624.00 C 830.28 600.62 816.11 564.40 807.99 543.50 C 799.87 522.60 790.21 497.85 786.52 488.50 C 782.83 479.15 776.30 462.50 772.02 451.50 C 767.73 440.50 754.10 405.62 741.71 374.00 C 729.33 342.38 715.06 305.93 710.00 293.00 C 704.94 280.07 700.46 269.14 700.05 268.70 C 699.63 268.26 677.52 272.17 650.90 277.40 C 624.28 282.63 590.35 289.20 575.50 292.01 C 560.65 294.81 530.50 300.66 508.50 305.01 C 447.84 316.99 234.96 358.14 221.67 360.45 C 218.58 360.99 217.97 361.45 218.52 362.81 C 219.69 365.69 229.42 404.97 237.39 439.00 C 241.57 456.88 248.63 487.02 253.07 506.00 C 257.51 524.98 267.44 568.62 275.14 603.00 C 282.84 637.38 292.22 679.23 296.00 696.00 C 304.54 733.92 318.30 795.24 324.97 825.00 C 327.74 837.38 330.25 848.56 330.54 849.85 C 331.00 851.84 331.50 852.09 333.79 851.50 C 335.28 851.12 344.15 849.05 353.50 846.90 M 351.88 294.43 C 400.62 284.76 480.32 268.96 529.00 259.32 C 577.67 249.67 618.06 241.32 618.75 240.76 C 620.51 239.34 620.31 233.45 618.43 231.57 C 616.45 229.59 616.25 229.60 604.36 231.94 C 598.94 233.01 568.85 238.89 537.50 245.01 C 320.72 287.35 262.90 298.95 260.25 300.62 C 257.90 302.11 257.34 305.43 259.00 308.00 C 259.84 309.30 259.97 309.28 259.98 307.84 C 260.00 306.56 261.64 305.92 267.25 305.03 C 271.24 304.40 278.77 303.00 284.00 301.93 C 289.23 300.85 299.35 298.85 306.50 297.47 C 313.65 296.10 325.80 293.66 333.50 292.05 C 345.75 289.50 367.29 285.23 404.00 278.07 C 409.77 276.95 417.65 275.39 421.50 274.61 C 425.35 273.84 438.18 271.32 450.00 269.01 C 461.82 266.71 479.38 263.26 489.00 261.35 C 498.62 259.43 513.25 256.58 521.50 255.01 C 548.63 249.84 567.88 246.06 577.77 243.97 C 583.12 242.83 593.58 240.78 601.00 239.40 C 608.42 238.02 615.51 236.64 616.75 236.33 C 618.53 235.90 619.00 236.21 619.00 237.82 C 619.00 238.95 618.21 240.11 617.25 240.40 C 615.62 240.91 583.01 247.40 350.50 293.51 C 301.55 303.22 261.32 311.35 261.09 311.58 C 260.11 312.56 267.43 311.18 351.88 294.43 M 373.32 243.81 C 368.79 241.62 367.90 233.21 371.83 229.66 C 372.77 228.80 374.66 227.66 376.02 227.12 C 378.29 226.21 378.32 226.12 376.38 226.06 C 373.10 225.96 369.15 229.68 368.42 233.56 C 367.41 238.94 370.69 245.04 374.50 244.90 C 375.05 244.88 374.52 244.39 373.32 243.81 M 382.49 244.01 C 382.84 243.44 382.44 243.28 381.55 243.62 C 379.82 244.28 379.50 245.00 380.94 245.00 C 381.46 245.00 382.16 244.56 382.49 244.01 M 380.11 241.94 C 383.03 240.38 384.33 236.22 382.95 232.89 C 380.16 226.14 371.81 227.34 370.39 234.68 C 369.90 237.25 370.27 238.36 372.34 240.43 C 375.13 243.22 377.03 243.59 380.11 241.94 M 386.86 236.00 C 386.80 233.71 386.73 233.76 386.02 236.50 C 385.60 238.15 384.94 240.40 384.55 241.50 C 384.09 242.83 384.38 242.66 385.40 241.00 C 386.24 239.62 386.90 237.38 386.86 236.00 M 372.50 224.59 C 388.25 221.42 391.20 220.63 391.64 219.49 C 392.01 218.54 387.82 199.94 385.43 191.88 C 384.80 189.76 386.86 189.26 424.36 182.42 C 440.94 179.40 457.34 176.27 460.81 175.46 C 468.59 173.66 468.17 173.64 467.91 175.75 C 467.79 176.71 467.97 178.18 468.31 179.00 C 468.89 180.42 472.06 193.74 473.49 200.74 C 473.86 202.52 474.58 204.24 475.09 204.56 C 476.35 205.33 487.00 203.97 487.00 203.03 C 487.00 202.63 484.66 202.67 481.80 203.12 C 478.95 203.57 476.53 203.84 476.44 203.72 C 476.34 203.60 475.97 201.70 475.61 199.50 C 475.12 196.48 475.22 195.92 476.01 197.22 C 476.59 198.16 477.84 199.43 478.78 200.04 C 480.39 201.08 480.39 201.12 478.75 200.61 C 477.79 200.31 477.00 200.50 477.00 201.03 C 477.00 202.13 479.33 202.34 480.34 201.33 C 480.71 200.96 480.36 199.67 479.57 198.47 C 478.21 196.38 478.31 196.22 481.82 195.21 C 491.51 192.39 498.56 192.83 493.25 195.92 C 491.81 196.76 491.77 196.94 493.05 196.97 C 493.90 196.99 495.17 196.44 495.87 195.75 C 496.90 194.74 497.07 195.18 496.76 198.00 C 496.42 201.20 496.00 201.60 491.94 202.67 C 486.02 204.23 488.32 204.28 497.06 202.78 L 504.16 201.56 L 503.57 198.53 C 503.24 196.86 501.58 190.44 499.87 184.25 C 496.26 171.13 497.19 171.63 482.66 175.19 L 473.73 177.38 L 471.40 174.44 C 459.71 159.68 460.98 159.88 425.52 166.97 C 400.46 171.98 395.79 173.37 391.59 177.05 C 387.38 180.75 381.61 189.56 382.48 190.96 C 382.83 191.53 382.42 192.00 381.56 192.00 C 380.70 192.00 380.00 192.45 380.00 193.00 C 380.00 193.55 379.32 194.00 378.50 194.00 C 376.31 194.00 376.67 195.91 379.25 198.00 L 381.49 199.82 L 378.00 200.82 L 374.50 201.82 L 378.25 201.91 C 381.24 201.98 382.00 202.39 382.00 203.90 C 382.00 206.20 377.87 207.83 369.91 208.66 C 365.15 209.16 364.21 208.99 363.63 207.48 C 362.77 205.23 362.62 205.34 369.05 203.53 L 374.50 202.00 L 369.30 202.59 C 366.43 202.91 363.64 202.90 363.09 202.56 C 361.30 201.45 363.15 199.00 365.86 198.90 L 368.50 198.80 L 366.00 198.02 C 364.62 197.60 362.49 197.47 361.25 197.73 C 360.01 198.00 359.00 197.76 359.00 197.20 C 359.00 196.64 362.49 195.48 366.75 194.62 C 373.77 193.20 373.96 193.11 368.78 193.60 L 363.06 194.14 L 366.06 186.86 C 372.34 171.64 381.30 161.78 392.22 158.08 C 401.91 154.80 447.25 146.69 456.50 146.59 C 462.89 146.52 465.41 146.95 469.00 148.73 C 476.08 152.24 485.65 160.69 489.49 166.83 C 493.25 172.84 494.26 172.39 491.07 166.13 C 488.23 160.58 477.52 151.14 470.02 147.59 C 461.22 143.43 456.63 143.61 424.87 149.38 C 387.78 156.12 384.47 157.33 375.11 167.57 C 370.24 172.90 362.96 186.06 361.45 192.25 C 361.08 193.76 360.23 195.00 359.55 195.00 C 358.87 195.00 357.63 195.79 356.81 196.75 C 355.46 198.32 355.61 199.92 358.33 212.25 C 361.78 227.90 360.70 226.96 372.50 224.59 M 499.60 221.75 L 501.50 219.50 L 499.00 221.49 C 497.62 222.58 496.31 223.60 496.08 223.74 C 495.85 223.88 496.12 224.00 496.68 224.00 C 497.23 224.00 498.55 222.99 499.60 221.75 M 487.80 221.05 C 487.12 219.97 486.38 219.28 486.15 219.52 C 485.72 219.95 487.90 223.00 488.63 223.00 C 488.84 223.00 488.47 222.12 487.80 221.05 M 498.27 218.85 C 502.37 213.34 496.75 207.10 490.42 210.12 C 486.41 212.04 486.00 216.09 489.46 219.55 C 492.61 222.70 495.58 222.46 498.27 218.85 M 485.68 215.81 C 485.36 215.01 485.13 215.25 485.08 216.42 C 485.04 217.47 485.27 218.06 485.60 217.73 C 485.94 217.40 485.97 216.53 485.68 215.81 M 502.00 213.42 C 502.00 211.24 496.55 205.99 494.33 206.04 C 493.20 206.06 493.78 206.64 495.83 207.53 C 497.91 208.43 499.59 210.10 500.30 211.99 C 501.58 215.37 502.00 215.73 502.00 213.42 M 489.54 208.17 C 491.89 207.10 492.95 205.00 491.15 205.00 C 489.25 205.00 485.00 210.04 485.08 212.20 C 485.15 214.41 485.20 214.40 486.11 211.89 C 486.64 210.46 488.18 208.78 489.54 208.17 M 489.50 197.85 C 490.85 197.27 490.36 197.19 488.00 197.61 C 486.07 197.95 483.82 198.63 483.00 199.13 C 481.22 200.19 486.41 199.17 489.50 197.85 M 377.73 192.40 C 377.40 192.06 376.53 192.03 375.81 192.32 C 375.01 192.64 375.25 192.87 376.42 192.92 C 377.47 192.96 378.06 192.73 377.73 192.40 M 385.57 175.35 C 387.45 173.06 390.90 170.26 393.24 169.13 C 397.33 167.14 428.81 160.45 445.57 158.00 C 455.34 156.57 460.29 157.61 465.76 162.25 L 469.50 165.41 L 466.61 162.25 C 459.66 154.67 453.97 154.43 423.00 160.43 C 396.88 165.49 392.41 166.97 387.35 172.20 C 383.06 176.64 376.99 185.59 377.01 187.45 C 377.02 188.03 378.18 186.48 379.60 184.00 C 381.01 181.53 383.70 177.63 385.57 175.35 M 337.61 813.07 C 338.10 812.62 348.40 809.96 360.50 807.17 C 372.60 804.38 394.88 799.19 410.00 795.65 C 425.12 792.10 448.30 786.68 461.50 783.60 C 499.83 774.66 553.11 762.14 570.86 757.90 C 587.54 753.92 590.27 753.42 586.21 755.05 C 583.63 756.08 577.46 757.59 544.00 765.40 C 531.08 768.42 502.05 775.21 479.50 780.50 C 440.74 789.58 404.20 798.12 360.00 808.43 C 349.27 810.94 339.65 813.19 338.61 813.44 C 337.56 813.68 337.11 813.52 337.61 813.07 M 330.17 783.49 C 330.72 782.95 371.28 773.19 409.50 764.42 C 422.70 761.39 436.20 758.26 439.50 757.47 C 447.52 755.55 536.47 735.03 560.93 729.46 C 571.62 727.03 580.54 725.20 580.75 725.41 C 580.96 725.62 576.26 726.94 570.31 728.34 C 554.29 732.12 493.71 746.13 468.50 751.89 C 439.53 758.51 393.21 769.28 358.67 777.43 C 329.99 784.20 329.32 784.34 330.17 783.49 M 607.14 755.50 C 605.87 752.20 603.12 744.55 601.02 738.50 C 596.07 724.23 583.43 688.80 572.48 658.50 C 567.71 645.30 562.32 630.23 560.51 625.00 C 557.33 615.82 548.59 591.41 535.45 555.00 C 531.97 545.38 525.11 526.70 520.19 513.50 C 515.27 500.30 505.75 474.65 499.03 456.50 C 492.32 438.35 483.45 414.50 479.32 403.50 C 468.46 374.54 465.80 366.87 466.44 366.23 C 466.75 365.92 467.23 365.89 467.51 366.17 C 468.27 366.94 488.19 420.07 527.99 527.50 C 533.90 543.45 541.30 563.70 544.43 572.50 C 547.55 581.30 553.91 599.08 558.54 612.00 C 588.92 696.68 595.04 713.89 602.15 734.45 C 606.52 747.08 609.94 758.33 609.77 759.45 C 609.55 760.83 608.69 759.53 607.14 755.50 M 324.00 754.07 C 324.00 753.29 328.57 752.19 385.00 739.39 C 405.62 734.71 444.32 725.92 471.00 719.86 C 520.63 708.57 565.54 698.43 570.00 697.50 C 571.74 697.13 572.05 697.24 571.00 697.86 C 570.17 698.34 567.25 699.24 564.50 699.85 C 559.37 700.98 524.67 708.87 473.50 720.53 C 457.55 724.17 436.62 728.88 427.00 731.01 C 417.38 733.13 401.40 736.73 391.50 738.99 C 381.60 741.26 365.85 744.85 356.50 746.97 C 347.15 749.09 336.01 751.72 331.75 752.81 C 327.49 753.90 324.00 754.47 324.00 754.07 M 618.13 746.53 C 618.68 745.99 653.66 737.44 676.00 732.40 C 684.52 730.48 700.95 726.68 712.50 723.97 C 783.34 707.35 844.65 693.72 846.21 694.24 C 846.81 694.44 842.40 695.63 836.40 696.89 C 824.28 699.44 760.29 714.00 724.00 722.46 C 711.08 725.48 688.58 730.68 674.00 734.03 C 659.42 737.37 641.34 741.66 633.80 743.55 C 620.62 746.87 617.13 747.53 618.13 746.53 M 317.74 724.86 C 318.51 724.09 376.64 710.56 439.50 696.51 C 477.67 687.98 511.62 680.30 537.37 674.39 C 550.49 671.37 561.43 669.09 561.66 669.33 C 561.90 669.57 561.06 670.02 559.80 670.33 C 553.05 671.99 504.45 683.06 469.00 691.00 C 421.54 701.63 365.85 714.30 337.20 720.97 C 326.03 723.58 317.28 725.32 317.74 724.86 M 610.15 716.52 C 610.86 715.81 672.71 701.39 726.50 689.39 C 781.15 677.20 833.85 665.18 836.00 664.41 C 836.98 664.07 837.15 664.22 836.50 664.85 C 835.57 665.75 786.02 677.47 749.50 685.43 C 719.62 691.95 671.60 702.83 641.40 709.93 C 611.44 716.97 609.23 717.43 610.15 716.52 M 310.50 696.25 C 311.72 694.97 346.95 687.02 513.00 650.52 C 531.98 646.35 548.40 642.70 549.50 642.42 C 551.05 642.02 551.16 642.12 550.00 642.84 C 548.35 643.86 543.73 644.93 486.50 657.52 C 391.67 678.39 368.77 683.47 341.52 689.66 C 325.58 693.28 311.86 696.48 311.02 696.77 C 309.98 697.13 309.82 696.96 310.50 696.25 M 598.67 687.98 C 599.55 687.15 661.49 672.87 726.50 658.50 C 747.95 653.76 779.14 646.73 795.81 642.88 C 812.48 639.03 826.58 636.03 827.15 636.22 C 828.46 636.65 804.61 642.23 740.00 656.59 C 695.28 666.54 640.23 678.97 607.67 686.48 C 602.27 687.73 598.22 688.40 598.67 687.98 M 305.00 668.06 C 305.00 667.30 392.27 647.82 473.50 630.47 C 548.41 614.46 543.97 615.36 542.88 616.45 C 542.64 616.70 519.05 621.88 490.47 627.97 C 461.89 634.06 428.38 641.27 416.00 643.99 C 351.37 658.20 333.21 662.23 319.75 665.34 C 311.64 667.21 305.00 668.44 305.00 668.06 M 590.50 657.91 C 595.36 656.43 661.38 641.30 688.50 635.45 C 702.25 632.48 735.75 625.10 762.93 619.05 C 790.12 612.99 812.53 608.20 812.74 608.40 C 813.33 609.00 786.85 614.98 668.00 641.10 C 657.83 643.33 636.00 648.27 619.50 652.08 C 591.99 658.42 582.74 660.28 590.50 657.91 M 298.51 640.14 C 299.62 639.64 309.07 637.40 319.51 635.15 C 329.96 632.90 349.07 628.77 362.00 625.97 C 374.93 623.17 391.80 619.58 399.50 617.99 C 407.20 616.40 424.07 612.81 437.00 610.00 C 449.93 607.19 476.02 601.74 495.00 597.90 C 513.98 594.06 530.40 590.68 531.50 590.41 C 533.05 590.02 533.17 590.11 532.00 590.84 C 531.17 591.36 519.02 594.12 505.00 596.98 C 474.54 603.19 437.61 610.92 419.00 614.99 C 390.86 621.15 301.39 640.28 299.00 640.65 C 296.80 641.00 296.74 640.94 298.51 640.14 M 577.50 629.18 C 579.19 627.58 624.79 617.18 702.50 600.65 C 730.84 594.62 788.67 582.00 798.90 579.61 C 802.41 578.78 804.89 578.49 804.40 578.95 C 803.90 579.41 797.20 581.18 789.50 582.90 C 754.79 590.61 713.23 599.62 687.50 605.01 C 643.67 614.19 583.46 627.71 578.00 629.60 C 577.03 629.93 576.86 629.78 577.50 629.18 M 292.50 613.16 C 294.48 612.28 310.16 608.80 356.50 598.98 C 369.70 596.18 388.60 592.14 398.50 589.99 C 441.68 580.63 522.20 564.00 524.35 564.00 C 527.83 564.00 521.21 565.58 497.45 570.43 C 450.90 579.93 403.96 589.87 317.50 608.54 C 305.40 611.15 294.38 613.46 293.00 613.67 C 290.82 614.00 290.75 613.93 292.50 613.16 M 568.00 599.15 C 568.83 598.63 584.12 594.99 602.00 591.06 C 619.88 587.13 641.48 582.37 650.00 580.49 C 658.52 578.60 680.58 573.92 699.00 570.09 C 732.70 563.08 781.17 552.76 788.38 551.06 C 790.51 550.56 791.86 550.50 791.38 550.94 C 790.50 551.73 731.30 564.69 686.37 573.93 C 673.10 576.66 656.22 580.25 648.87 581.91 C 641.52 583.58 620.88 588.11 603.00 591.99 C 585.12 595.88 569.60 599.29 568.50 599.57 C 566.94 599.98 566.83 599.89 568.00 599.15 M 286.50 586.44 C 287.98 585.85 316.31 579.38 329.80 576.55 C 336.23 575.20 359.73 570.24 382.00 565.52 C 472.17 546.43 515.08 537.75 515.78 538.45 C 516.08 538.75 516.10 539.00 515.83 539.00 C 515.38 539.00 497.44 542.66 435.00 555.50 C 425.93 557.37 408.82 560.97 397.00 563.50 C 385.18 566.03 369.20 569.40 361.50 571.00 C 339.79 575.49 319.92 579.78 303.34 583.55 C 290.11 586.56 283.26 587.74 286.50 586.44 M 558.50 571.02 C 559.60 570.45 573.10 567.28 588.50 563.96 C 636.31 553.66 689.43 542.36 715.00 537.05 C 728.48 534.25 749.30 529.79 761.29 527.14 C 773.27 524.49 782.72 522.65 782.29 523.05 C 781.41 523.85 734.55 534.29 697.50 541.92 C 668.95 547.81 622.13 557.78 587.50 565.35 C 554.51 572.57 556.07 572.26 558.50 571.02 M 279.18 559.48 C 279.46 559.20 291.35 556.53 305.60 553.54 C 319.84 550.56 339.15 546.49 348.50 544.51 C 369.47 540.07 437.90 526.06 475.42 518.54 C 490.77 515.46 503.79 513.10 504.34 513.28 C 504.90 513.47 496.16 515.49 484.93 517.77 C 397.75 535.49 353.80 544.51 337.50 548.02 C 318.59 552.10 280.08 560.00 279.15 560.00 C 278.89 560.00 278.90 559.77 279.18 559.48 M 547.13 543.53 C 547.39 543.28 558.38 540.82 571.55 538.07 C 609.05 530.25 694.84 512.43 723.50 506.51 C 737.80 503.56 754.63 499.98 760.91 498.57 C 767.19 497.15 772.53 496.19 772.78 496.45 C 773.03 496.70 771.95 497.19 770.37 497.55 C 768.79 497.91 765.81 498.62 763.75 499.14 C 759.95 500.09 727.65 506.84 649.50 523.00 C 625.85 527.89 593.45 534.62 577.50 537.95 C 548.55 543.99 546.26 544.41 547.13 543.53 M 275.00 532.11 C 275.82 531.60 278.98 530.71 282.00 530.13 C 285.02 529.55 302.80 525.94 321.50 522.12 C 422.06 501.53 494.40 487.07 494.79 487.46 C 495.40 488.07 498.71 487.37 419.00 503.45 C 357.65 515.83 284.27 530.73 276.00 532.49 C 274.21 532.88 273.92 532.77 275.00 532.11 M 537.00 516.21 C 537.83 515.70 543.67 514.29 550.00 513.07 C 565.54 510.06 658.35 491.09 712.50 479.85 C 736.70 474.83 757.62 470.49 759.00 470.22 C 760.38 469.95 761.22 470.03 760.88 470.40 C 760.09 471.26 609.28 502.54 538.00 516.63 C 536.20 516.99 535.92 516.87 537.00 516.21 M 267.14 506.52 C 268.26 505.40 484.99 461.66 485.73 462.40 C 486.32 462.98 481.80 463.92 398.73 480.51 C 358.70 488.49 312.86 497.72 296.85 501.01 C 266.28 507.30 266.39 507.28 267.14 506.52 M 262.09 480.58 C 262.32 480.35 280.73 476.50 303.01 472.04 C 325.28 467.58 349.80 462.63 357.50 461.03 C 370.76 458.30 441.00 444.45 464.34 439.97 C 470.30 438.83 475.70 438.07 476.34 438.29 C 476.98 438.50 472.10 439.69 465.50 440.93 C 458.90 442.17 439.10 446.03 421.50 449.51 C 403.90 453.00 382.52 457.21 374.00 458.88 C 365.48 460.55 337.29 466.21 311.36 471.46 C 266.29 480.58 261.13 481.54 262.09 480.58 M 522.00 479.68 C 522.00 478.98 536.59 475.68 582.50 466.01 C 603.40 461.61 630.85 455.78 643.50 453.06 C 656.15 450.35 683.38 444.72 704.00 440.56 C 724.62 436.41 742.96 432.59 744.75 432.07 C 746.54 431.56 748.00 431.50 748.00 431.93 C 748.00 432.81 747.91 432.83 698.00 442.91 C 678.48 446.85 654.40 451.84 644.50 453.99 C 634.60 456.14 604.00 462.67 576.50 468.51 C 549.00 474.34 525.49 479.36 524.25 479.67 C 523.01 479.97 522.00 479.98 522.00 479.68 M 255.18 457.49 C 256.16 456.51 286.19 449.89 319.00 443.42 C 334.68 440.33 374.39 432.45 407.26 425.90 C 440.13 419.36 467.35 414.04 467.76 414.09 C 470.66 414.42 436.38 421.50 342.00 440.06 C 294.42 449.41 272.50 453.93 257.00 457.57 C 255.63 457.90 254.81 457.86 255.18 457.49 M 515.04 453.99 C 519.17 452.33 734.87 407.79 736.36 408.29 C 736.93 408.48 732.69 409.59 726.95 410.76 C 721.20 411.93 691.30 418.11 660.50 424.51 C 590.23 439.09 518.28 453.95 515.00 454.55 L 512.50 455.01 L 515.04 453.99 M 250.48 433.04 C 250.83 432.47 251.86 432.00 252.78 432.00 C 253.69 432.00 281.90 426.57 315.47 419.93 C 349.03 413.29 394.73 404.27 417.00 399.87 C 439.27 395.48 458.40 391.63 459.50 391.33 C 460.82 390.96 461.16 391.11 460.50 391.76 C 459.95 392.30 438.35 396.88 412.50 401.93 C 362.00 411.81 256.00 432.73 252.17 433.57 C 250.70 433.89 250.07 433.69 250.48 433.04 M 507.00 429.81 C 513.07 428.07 590.92 411.88 669.50 396.02 C 688.20 392.24 708.80 387.96 715.27 386.50 C 721.75 385.04 727.57 384.02 728.21 384.24 C 729.79 384.76 708.11 389.40 624.00 406.51 C 584.67 414.51 541.92 423.29 529.00 426.02 C 506.53 430.76 499.43 431.99 507.00 429.81 M 247.00 409.95 C 249.78 408.97 369.01 385.22 415.00 376.49 C 431.23 373.42 446.29 370.49 448.47 370.00 C 452.49 369.10 454.69 369.37 451.33 370.35 C 448.35 371.21 431.23 374.61 403.00 379.94 C 388.43 382.69 347.09 390.81 311.15 397.97 C 275.21 405.14 245.51 410.96 245.15 410.92 C 244.79 410.88 245.62 410.44 247.00 409.95 M 496.00 408.09 C 496.00 407.22 513.75 403.35 574.50 391.00 C 741.38 357.06 723.66 360.60 722.93 361.37 C 722.38 361.95 686.84 369.32 566.00 393.93 C 533.27 400.59 504.14 406.67 501.25 407.43 C 498.36 408.19 496.00 408.49 496.00 408.09 M 236.32 384.54 C 235.74 382.02 235.54 379.80 235.88 379.60 C 236.22 379.41 238.75 378.95 241.50 378.57 C 244.25 378.20 257.07 375.93 270.00 373.53 C 282.93 371.13 295.57 368.87 298.11 368.49 L 302.71 367.82 L 304.25 371.66 C 305.10 373.77 305.62 375.78 305.42 376.12 C 305.21 376.46 302.67 377.05 299.77 377.43 C 294.68 378.09 243.64 387.55 239.43 388.61 C 237.66 389.05 237.21 388.46 236.32 384.54 M 490.50 384.28 C 498.37 382.35 710.42 340.09 710.72 340.38 C 710.92 340.59 709.83 341.08 708.30 341.47 C 700.94 343.34 491.76 384.99 490.24 384.88 C 488.84 384.79 488.89 384.67 490.50 384.28 M 478.50 364.04 C 479.60 363.49 518.98 355.34 566.00 345.94 C 669.86 325.17 691.17 320.81 700.50 318.42 C 702.15 317.99 702.22 318.08 700.92 318.90 C 698.54 320.42 647.75 330.86 479.42 364.46 C 477.01 364.94 476.85 364.87 478.50 364.04 M 362.55 221.39 C 361.66 216.66 362.27 216.22 363.63 220.59 C 364.23 222.49 364.38 224.26 363.97 224.52 C 363.56 224.77 362.92 223.37 362.55 221.39 M 366.48 222.06 C 366.67 219.50 367.40 218.78 371.32 217.32 C 374.33 216.20 374.24 216.16 369.50 216.63 C 364.83 217.09 364.66 217.03 366.89 215.70 L 369.27 214.28 L 366.64 213.62 C 365.19 213.26 364.00 212.58 364.00 212.11 C 364.00 210.97 381.53 207.59 382.92 208.45 C 384.66 209.53 384.17 211.00 381.75 211.97 C 379.64 212.82 379.68 212.88 382.50 213.04 C 385.46 213.20 385.47 213.21 383.00 214.00 C 380.60 214.77 380.59 214.80 382.75 214.90 C 384.94 215.00 386.00 216.88 384.00 217.12 C 383.45 217.19 382.59 217.31 382.08 217.38 C 379.17 217.77 380.54 218.77 384.06 218.82 C 386.34 218.85 388.42 219.09 388.68 219.34 C 389.20 219.87 377.91 222.47 370.91 223.44 C 366.74 224.02 366.34 223.89 366.48 222.06 M 361.08 213.42 C 361.13 212.25 361.36 212.01 361.68 212.81 C 361.97 213.53 361.94 214.40 361.60 214.73 C 361.27 215.06 361.04 214.47 361.08 213.42 M 360.08 209.42 C 360.13 208.25 360.36 208.01 360.68 208.81 C 360.97 209.53 360.94 210.40 360.60 210.73 C 360.27 211.06 360.04 210.47 360.08 209.42 M 358.08 202.42 C 358.13 201.25 358.36 201.01 358.68 201.81 C 358.97 202.53 358.94 203.40 358.60 203.73 C 358.27 204.06 358.04 203.47 358.08 202.42 M 474.50 193.00 C 474.12 191.82 474.04 190.62 474.32 190.35 C 474.59 190.07 475.12 190.82 475.50 192.00 C 475.88 193.18 475.96 194.38 475.68 194.65 C 475.41 194.93 474.88 194.18 474.50 193.00 M 478.00 193.06 C 478.00 192.48 478.65 192.00 479.44 192.00 C 480.23 192.00 481.13 191.59 481.44 191.09 C 481.75 190.59 481.15 190.41 480.11 190.68 C 477.93 191.25 476.40 189.49 478.14 188.41 C 479.34 187.67 490.47 185.10 492.75 185.04 C 493.44 185.02 494.00 185.64 494.00 186.42 C 494.00 187.20 493.44 188.06 492.75 188.34 C 492.00 188.64 492.20 188.87 493.25 188.92 C 496.35 189.06 495.11 190.89 491.25 191.87 C 484.34 193.61 478.00 194.18 478.00 193.06 M 485.73 190.40 C 485.40 190.06 484.53 190.03 483.81 190.32 C 483.01 190.64 483.25 190.87 484.42 190.92 C 485.47 190.96 486.06 190.73 485.73 190.40 M 473.08 186.42 C 473.13 185.25 473.36 185.01 473.68 185.81 C 473.97 186.53 473.94 187.40 473.60 187.73 C 473.27 188.06 473.04 187.47 473.08 186.42 M 476.00 185.61 C 476.00 185.24 477.01 184.49 478.25 183.94 C 480.30 183.04 480.26 183.00 477.75 183.50 C 473.23 184.39 474.64 182.20 479.25 181.17 C 481.59 180.64 482.60 180.18 481.50 180.13 C 480.40 180.09 477.81 180.44 475.75 180.92 C 472.83 181.60 472.00 181.49 472.00 180.43 C 472.00 179.07 476.03 177.68 483.50 176.47 C 485.70 176.12 488.29 175.61 489.25 175.35 C 491.27 174.79 491.73 177.54 489.75 178.34 C 488.96 178.66 489.10 178.87 490.13 178.92 C 491.03 178.96 492.00 179.87 492.27 180.94 C 492.66 182.42 492.05 183.14 489.70 183.95 C 485.81 185.31 476.00 186.49 476.00 185.61 Z" stroke-linecap="round"/>
</g>
</g>
</g>
<g id="0wrFlVT-si3-dpTMPmF27">
<g style="">
		<g id="u-FXI83Pt0fUaKDppygiL">
<path style="stroke: rgb(193,193,193); stroke-width: 0; stroke-dasharray: none; stroke-linecap: butt; stroke-dashoffset: 0; stroke-linejoin: miter; stroke-miterlimit: 4; fill: rgb(0,0,0); fill-rule: nonzero; opacity: 1;" transform="matrix(1.313616 0 0 1.313616 600.92116 599.97028) matrix(1 0 0 1 0 0)  translate(-509.008148, -508.444116)" d="M 630.00 932.95 C 620.92 930.16 584.70 918.86 549.50 907.85 C 463.85 881.04 384.69 856.66 353.80 847.58 C 328.39 840.11 290.97 829.13 244.50 815.50 C 230.75 811.46 201.09 802.71 178.59 796.04 C 133.04 782.55 107.32 775.23 83.50 768.99 C 60.66 763.01 58.56 761.97 54.89 754.79 C 52.63 750.34 52.47 745.20 54.47 740.43 C 55.27 738.50 61.87 727.38 69.12 715.71 C 76.37 704.05 90.28 681.45 100.02 665.50 C 109.76 649.55 130.08 616.48 145.17 592.00 C 160.27 567.52 182.10 531.75 193.69 512.50 C 205.28 493.25 224.55 461.30 236.51 441.50 C 279.66 370.11 319.57 303.98 335.50 277.50 C 344.43 262.65 362.89 232.05 376.51 209.50 C 390.14 186.95 408.72 156.12 417.79 141.00 C 452.90 82.51 452.87 82.56 460.64 80.23 C 466.64 78.43 469.57 78.67 482.15 82.02 C 520.49 92.24 668.39 128.00 672.28 128.00 C 674.06 128.00 675.03 125.26 679.37 108.09 C 681.62 99.21 681.83 98.81 683.09 101.09 C 683.82 102.41 684.34 104.17 684.24 105.00 C 684.13 105.86 684.28 106.00 684.59 105.31 C 684.98 104.44 686.27 104.61 689.40 105.96 C 701.77 111.26 727.73 113.44 734.85 109.78 C 737.01 108.66 738.03 108.49 737.73 109.28 C 736.55 112.43 730.85 138.18 731.25 138.58 C 732.20 139.53 785.28 152.10 819.50 159.49 C 833.25 162.45 848.55 165.84 853.50 167.01 C 858.45 168.18 874.20 171.78 888.50 175.00 C 943.38 187.39 948.01 188.95 956.09 197.72 C 966.63 209.15 967.62 220.35 959.79 239.50 C 944.96 275.72 912.65 353.54 899.98 383.50 C 891.85 402.75 881.05 428.40 876.00 440.50 C 867.97 459.71 853.89 492.83 810.74 594.00 C 804.99 607.48 783.62 657.42 763.25 705.00 C 695.33 863.65 680.61 898.95 675.06 916.50 C 670.42 931.15 664.11 937.26 653.11 937.73 C 647.52 937.97 643.96 937.24 630.00 932.95 M 648.45 931.20 C 647.93 930.75 644.35 929.44 640.50 928.27 C 627.04 924.19 577.26 908.73 549.00 899.86 C 533.33 894.94 505.88 886.38 488.00 880.86 C 470.12 875.33 442.57 866.80 426.77 861.90 C 390.20 850.57 345.72 837.23 312.50 827.63 C 242.30 807.35 181.43 789.56 149.50 779.98 C 124.09 772.35 104.28 766.86 81.35 761.07 C 73.02 758.96 65.64 756.89 64.95 756.47 C 64.19 756.00 63.94 756.10 64.32 756.72 C 65.34 758.36 68.97 759.51 98.50 767.54 C 113.90 771.72 135.95 778.00 147.50 781.49 C 168.82 787.92 184.56 792.56 220.50 803.03 C 231.50 806.24 248.38 811.17 258.00 814.00 C 267.62 816.83 286.07 822.23 299.00 826.00 C 311.93 829.77 328.57 834.64 336.00 836.82 C 343.43 839.01 356.70 842.91 365.50 845.49 C 374.30 848.07 393.88 854.00 409.00 858.67 C 424.12 863.34 451.80 871.88 470.50 877.64 C 489.20 883.41 513.50 890.99 524.50 894.48 C 564.14 907.05 616.68 923.42 638.00 929.85 C 644.78 931.90 650.08 932.58 648.45 931.20 M 660.58 925.94 C 664.01 922.74 665.47 919.79 668.60 909.80 C 672.41 897.63 714.66 796.66 748.00 720.04 C 753.39 707.64 761.04 689.85 765.00 680.50 C 768.96 671.15 782.01 640.55 794.00 612.50 C 833.66 519.71 864.69 446.79 873.78 425.00 C 878.72 413.18 887.05 393.38 892.29 381.00 C 897.53 368.62 907.75 344.10 914.99 326.50 C 922.24 308.90 934.72 278.98 942.73 260.02 C 951.99 238.11 957.45 223.89 957.71 221.02 L 958.12 216.50 L 955.71 223.00 C 954.38 226.57 947.78 242.55 941.04 258.49 C 934.30 274.44 922.57 302.56 914.99 320.99 C 907.40 339.42 897.38 363.50 892.72 374.50 C 888.06 385.50 878.96 407.10 872.51 422.50 C 866.05 437.90 850.20 475.25 837.28 505.50 C 824.36 535.75 802.07 587.95 787.76 621.50 C 773.44 655.05 752.62 703.65 741.49 729.50 C 702.63 819.69 674.43 887.00 667.36 906.41 C 662.55 919.61 661.14 922.21 657.46 924.62 C 652.91 927.60 644.81 925.87 608.00 914.03 C 568.82 901.43 471.29 870.78 419.00 854.64 C 401.59 849.26 352.54 834.55 323.50 826.00 C 311.95 822.60 296.65 818.06 289.50 815.93 C 282.35 813.79 257.38 806.44 234.00 799.60 C 210.62 792.76 180.47 783.93 167.00 779.98 C 136.03 770.91 98.47 760.23 81.00 755.52 C 70.95 752.81 66.80 751.21 64.75 749.26 C 63.24 747.81 62.00 746.04 62.00 745.31 C 62.00 742.98 60.24 743.92 59.56 746.61 C 58.79 749.70 61.06 753.69 64.30 754.93 C 65.51 755.39 71.09 756.74 76.69 757.92 C 88.01 760.32 112.17 766.98 155.00 779.51 C 170.68 784.10 197.68 791.98 215.00 797.04 C 353.14 837.33 371.54 842.77 410.00 854.69 C 425.12 859.37 452.80 867.92 471.50 873.68 C 490.20 879.43 523.27 889.78 545.00 896.67 C 566.73 903.55 594.62 912.36 607.00 916.23 C 619.38 920.10 633.33 924.54 638.00 926.09 C 648.80 929.68 656.63 929.63 660.58 925.94 M 545.50 884.00 C 544.40 883.53 542.83 883.14 542.00 883.14 C 541.05 883.14 541.24 883.46 542.50 884.00 C 543.60 884.47 545.17 884.86 546.00 884.86 C 546.95 884.86 546.76 884.54 545.50 884.00 M 527.50 878.48 C 511.76 873.21 461.04 857.34 409.50 841.58 C 388.60 835.19 370.60 829.57 369.50 829.10 C 368.40 828.62 361.76 826.73 354.75 824.90 C 347.74 823.08 342.00 821.23 342.00 820.79 C 342.00 820.36 340.92 820.00 339.60 820.00 C 337.45 820.00 321.63 815.21 316.50 813.00 C 315.40 812.53 312.70 811.85 310.50 811.48 C 306.94 810.89 294.85 807.18 289.50 805.04 C 288.40 804.60 284.35 803.30 280.50 802.16 C 276.65 801.02 270.57 799.19 267.00 798.11 C 263.43 797.03 258.93 795.84 257.00 795.46 C 255.07 795.09 252.15 794.21 250.50 793.49 C 247.69 792.28 235.26 788.50 209.50 781.02 C 199.12 778.01 180.44 772.43 159.00 765.95 C 120.03 754.18 123.76 755.25 92.13 746.61 C 79.28 743.10 68.37 739.62 67.90 738.87 C 67.25 737.85 67.03 738.06 67.02 739.68 C 66.99 743.20 71.24 745.56 82.72 748.43 C 93.53 751.13 129.26 761.31 162.00 771.02 C 171.62 773.88 190.07 779.28 203.00 783.02 C 268.05 801.89 284.88 806.81 325.50 818.84 C 349.70 826.01 378.05 834.40 388.50 837.49 C 415.54 845.48 510.14 874.13 525.00 878.83 C 541.89 884.17 543.70 883.91 527.50 878.48 M 634.46 844.00 C 637.35 837.67 650.97 807.75 664.73 777.50 C 691.03 719.70 693.17 715.07 736.22 622.50 C 778.09 532.50 800.39 484.93 818.74 446.50 C 840.62 400.70 856.89 366.21 863.32 352.00 C 866.93 344.02 874.15 328.27 879.37 317.00 L 888.85 296.50 L 869.18 292.24 C 848.31 287.72 826.99 283.02 694.00 253.62 C 553.61 222.59 512.04 213.52 472.75 205.35 C 440.47 198.64 435.01 197.25 435.00 195.75 C 435.00 194.73 435.75 194.00 436.81 194.00 C 440.49 194.00 490.46 204.40 554.50 218.51 C 575.95 223.23 606.10 229.81 621.50 233.13 C 636.90 236.45 669.52 243.65 694.00 249.13 C 718.48 254.61 746.83 260.90 757.00 263.10 C 781.67 268.44 867.84 287.43 880.79 290.38 L 891.08 292.72 L 899.97 275.12 C 904.86 265.44 908.76 257.43 908.64 257.31 C 908.31 256.98 815.42 236.97 796.00 233.05 C 793.52 232.55 783.17 230.28 773.00 228.00 C 753.24 223.59 705.29 213.40 662.00 204.42 C 647.42 201.39 624.70 196.49 611.50 193.52 C 598.30 190.54 567.25 183.80 542.50 178.52 C 517.75 173.25 487.38 166.72 475.00 164.03 C 462.62 161.33 451.09 158.85 449.37 158.51 C 445.74 157.80 448.38 153.56 405.95 228.00 C 392.62 251.38 374.19 283.32 365.00 299.00 C 355.80 314.68 343.86 335.15 338.48 344.50 C 333.09 353.85 314.97 384.45 298.20 412.50 C 281.44 440.55 265.61 467.10 263.01 471.50 C 260.42 475.90 250.42 492.77 240.79 509.00 C 231.16 525.23 216.77 549.52 208.81 563.00 C 200.84 576.48 189.90 594.70 184.49 603.50 C 179.07 612.30 164.90 635.70 153.00 655.50 C 141.10 675.30 129.06 695.15 126.26 699.61 L 121.16 707.72 L 127.33 709.41 C 135.92 711.76 200.11 730.54 232.00 740.02 C 246.57 744.35 275.82 752.86 297.00 758.92 C 345.52 772.80 394.26 787.03 436.00 799.50 C 453.88 804.84 483.12 813.46 501.00 818.67 C 518.88 823.87 542.27 830.77 553.00 834.00 C 563.73 837.22 583.53 843.02 597.02 846.88 C 610.51 850.74 622.66 854.35 624.02 854.90 C 625.38 855.45 627.11 855.81 627.85 855.70 C 628.59 855.59 631.57 850.33 634.46 844.00 M 861.38 230.61 C 869.14 227.37 871.73 217.39 866.44 211.11 C 859.75 203.16 845.00 208.54 845.00 218.93 C 845.00 223.91 848.59 229.16 853.03 230.69 C 857.52 232.24 857.49 232.24 861.38 230.61 M 852.55 196.49 C 851.06 193.96 848.87 191.49 847.68 190.99 C 846.48 190.50 837.17 188.46 827.00 186.46 C 816.83 184.47 796.12 180.14 781.00 176.86 C 724.69 164.63 725.73 164.83 724.85 166.21 C 723.02 169.09 721.93 168.69 748.00 174.82 C 757.08 176.95 767.88 179.43 772.00 180.32 C 793.87 185.03 812.11 189.14 817.00 190.47 C 821.67 191.74 830.77 193.59 841.00 195.35 C 847.65 196.50 852.06 198.24 853.06 200.12 C 853.67 201.25 854.41 201.93 854.70 201.63 C 855.00 201.33 854.03 199.02 852.55 196.49 M 730.79 187.49 C 730.24 187.02 704.43 181.11 674.00 174.49 C 657.23 170.84 641.80 167.48 639.72 167.03 C 635.95 166.20 635.92 166.21 632.41 171.71 C 630.47 174.74 629.02 177.31 629.19 177.42 C 629.36 177.53 632.88 178.16 637.00 178.82 C 644.67 180.06 698.50 191.22 716.50 195.31 L 726.50 197.59 L 728.79 192.66 C 730.05 189.96 730.95 187.63 730.79 187.49 M 515.56 152.37 C 518.21 150.63 521.00 145.22 521.00 141.82 C 521.00 140.51 520.30 138.44 519.44 137.22 C 518.59 136.00 518.14 134.58 518.46 134.07 C 520.20 131.25 537.34 132.43 568.00 137.48 C 569.92 137.79 593.29 141.69 619.93 146.15 C 666.12 153.87 668.41 154.16 669.68 152.43 C 670.40 151.43 670.99 150.14 670.98 149.56 C 670.98 148.98 670.59 149.09 670.13 149.82 C 669.45 150.90 668.25 150.86 663.40 149.63 C 650.50 146.34 545.51 126.32 531.44 124.46 L 526.37 123.79 L 521.73 128.95 C 517.73 133.40 516.81 133.97 515.11 133.06 C 514.02 132.48 511.14 132.00 508.70 132.00 C 503.42 132.00 499.64 135.15 497.88 141.00 C 496.46 145.75 498.08 149.47 502.99 152.78 C 506.82 155.35 511.23 155.21 515.56 152.37 M 624.73 153.40 C 624.40 153.06 623.53 153.03 622.81 153.32 C 622.01 153.64 622.25 153.87 623.42 153.92 C 624.47 153.96 625.06 153.73 624.73 153.40 M 618.73 152.40 C 618.40 152.06 617.53 152.03 616.81 152.32 C 616.01 152.64 616.25 152.87 617.42 152.92 C 618.47 152.96 619.06 152.73 618.73 152.40 M 672.35 147.46 C 672.02 146.61 671.54 146.13 671.28 146.39 C 671.01 146.65 671.10 147.35 671.46 147.93 C 672.44 149.53 673.02 149.22 672.35 147.46 M 591.73 147.40 C 591.40 147.06 590.53 147.03 589.81 147.32 C 589.01 147.64 589.25 147.87 590.42 147.92 C 591.47 147.96 592.06 147.73 591.73 147.40 M 585.73 146.40 C 585.40 146.06 584.53 146.03 583.81 146.32 C 583.01 146.64 583.25 146.87 584.42 146.92 C 585.47 146.96 586.06 146.73 585.73 146.40 M 673.59 144.52 C 673.34 143.15 673.46 141.83 673.85 141.59 C 674.24 141.35 674.64 139.66 674.73 137.83 C 674.89 134.74 674.80 134.83 673.47 139.00 C 672.69 141.47 672.29 144.29 672.59 145.25 C 673.41 147.87 674.10 147.36 673.59 144.52 M 579.73 145.40 C 579.40 145.06 578.53 145.03 577.81 145.32 C 577.01 145.64 577.25 145.87 578.42 145.92 C 579.47 145.96 580.06 145.73 579.73 145.40 M 573.25 144.34 C 572.56 144.06 571.44 144.06 570.75 144.34 C 570.06 144.62 570.62 144.84 572.00 144.84 C 573.38 144.84 573.94 144.62 573.25 144.34 M 567.25 143.34 C 566.56 143.06 565.44 143.06 564.75 143.34 C 564.06 143.62 564.62 143.84 566.00 143.84 C 567.38 143.84 567.94 143.62 567.25 143.34 M 561.73 142.40 C 561.40 142.06 560.53 142.03 559.81 142.32 C 559.01 142.64 559.25 142.87 560.42 142.92 C 561.47 142.96 562.06 142.73 561.73 142.40 M 555.73 141.40 C 555.40 141.06 554.53 141.03 553.81 141.32 C 553.01 141.64 553.25 141.87 554.42 141.92 C 555.47 141.96 556.06 141.73 555.73 141.40 M 550.27 140.34 C 549.59 140.07 548.24 140.05 547.27 140.31 C 546.30 140.56 546.85 140.78 548.50 140.81 C 550.15 140.83 550.95 140.62 550.27 140.34 M 544.27 139.34 C 543.59 139.07 542.24 139.05 541.27 139.31 C 540.30 139.56 540.85 139.78 542.50 139.81 C 544.15 139.83 544.95 139.62 544.27 139.34 M 537.25 138.34 C 536.56 138.06 535.44 138.06 534.75 138.34 C 534.06 138.62 534.62 138.84 536.00 138.84 C 537.38 138.84 537.94 138.62 537.25 138.34 M 531.25 137.34 C 530.56 137.06 529.44 137.06 528.75 137.34 C 528.06 137.62 528.62 137.84 530.00 137.84 C 531.38 137.84 531.94 137.62 531.25 137.34 M 677.68 125.81 C 677.36 125.01 677.13 125.25 677.08 126.42 C 677.04 127.47 677.27 128.06 677.60 127.73 C 677.94 127.40 677.97 126.53 677.68 125.81 M 704.00 108.41 C 696.21 106.34 684.36 100.54 683.10 98.18 C 682.17 96.44 682.44 96.04 685.16 95.09 C 689.64 93.53 708.27 93.77 716.41 95.50 C 724.92 97.30 735.45 102.11 736.93 104.87 C 737.93 106.75 737.60 107.04 732.83 108.46 C 726.29 110.40 711.40 110.37 704.00 108.41 M 725.37 107.08 C 725.85 107.03 725.69 106.33 725.01 105.52 C 723.51 103.70 718.72 102.29 709.54 100.96 C 702.05 99.87 689.88 100.68 692.17 102.12 C 695.31 104.09 718.55 108.06 723.00 107.38 C 723.83 107.26 724.89 107.12 725.37 107.08 M 249.50 687.50 C 248.95 687.31 229.15 681.88 205.50 675.43 C 181.85 668.98 162.31 663.54 162.08 663.35 C 159.66 661.31 169.04 663.52 204.74 673.40 C 227.78 679.78 247.07 685.00 247.62 685.00 C 248.17 685.00 249.49 685.66 250.56 686.47 C 252.36 687.83 251.86 688.31 249.50 687.50 M 282.00 675.00 C 274.02 672.89 254.22 667.72 238.00 663.51 C 178.32 648.05 171.49 646.18 172.17 645.50 C 172.42 645.25 180.02 647.01 189.06 649.41 C 198.10 651.82 225.97 659.07 251.00 665.52 C 292.68 676.26 302.40 679.03 298.00 678.89 C 297.18 678.87 289.98 677.11 282.00 675.00 M 277.50 655.93 C 263.20 652.11 236.43 645.12 218.00 640.39 C 199.57 635.66 184.07 631.38 183.55 630.89 C 183.03 630.40 182.87 630.00 183.19 630.00 C 184.51 630.00 305.35 662.01 305.82 662.49 C 306.97 663.64 302.33 662.56 277.50 655.93 M 293.50 635.42 C 282.50 632.57 255.72 625.65 234.00 620.03 C 212.28 614.41 194.31 609.63 194.07 609.39 C 193.83 609.16 194.06 608.54 194.59 608.01 C 195.48 607.12 213.90 611.66 289.34 631.36 C 303.01 634.93 314.45 638.12 314.78 638.44 C 317.12 640.79 310.77 639.89 293.50 635.42 M 253.00 593.29 C 231.28 588.01 213.38 583.60 213.23 583.49 C 213.08 583.38 213.21 582.63 213.52 581.82 C 214.15 580.16 210.54 579.40 264.29 592.50 C 284.71 597.47 295.95 600.64 295.71 601.37 C 295.50 601.99 294.70 602.59 293.92 602.69 C 293.14 602.80 274.73 598.57 253.00 593.29 M 301.84 582.51 C 301.44 582.11 290.67 579.23 282.75 577.40 C 281.79 577.18 280.21 576.81 279.25 576.58 C 278.29 576.35 272.55 574.99 266.50 573.56 C 235.22 566.13 226.00 563.70 226.00 562.89 C 226.00 561.77 226.28 561.78 229.46 562.99 C 230.89 563.53 233.05 564.16 234.28 564.38 C 235.50 564.61 244.10 566.64 253.38 568.90 C 262.67 571.16 271.22 573.21 272.38 573.45 C 281.39 575.32 304.00 581.60 304.00 582.22 C 304.00 583.09 302.61 583.27 301.84 582.51 M 312.77 565.44 C 312.49 565.16 302.19 562.51 289.88 559.56 C 243.23 548.36 230.15 544.89 235.08 545.04 C 238.57 545.15 315.19 564.77 314.29 565.32 C 313.73 565.66 313.05 565.72 312.77 565.44 M 312.50 545.01 C 306.45 543.46 289.01 539.16 273.75 535.45 C 254.40 530.75 246.00 528.30 246.00 527.35 C 246.00 526.61 246.16 526.00 246.35 526.00 C 247.22 526.00 320.84 544.18 323.76 545.12 C 325.55 545.69 326.76 546.57 326.45 547.08 C 325.68 548.32 325.15 548.24 312.50 545.01 M 305.50 515.96 C 283.50 510.56 263.96 505.77 262.08 505.32 C 260.19 504.87 258.45 503.87 258.19 503.10 C 257.51 501.03 261.25 501.79 307.30 513.14 C 332.53 519.36 347.96 523.61 347.74 524.29 C 347.54 524.88 346.95 525.47 346.44 525.58 C 345.92 525.69 327.50 521.36 305.50 515.96 M 396.50 503.39 C 383.85 500.39 370.12 497.09 366.00 496.04 C 361.88 494.99 356.37 493.60 353.77 492.94 C 351.17 492.29 349.28 491.35 349.59 490.86 C 349.89 490.37 350.66 490.29 351.30 490.69 C 351.94 491.08 353.15 491.49 353.98 491.60 C 354.82 491.70 360.00 492.91 365.50 494.29 C 388.09 499.94 418.06 507.00 419.48 507.00 C 420.32 507.00 421.00 507.45 421.00 508.00 C 421.00 509.29 423.00 509.66 396.50 503.39 M 408.00 491.72 C 401.12 490.04 396.01 488.50 396.63 488.29 C 397.74 487.92 422.07 493.74 422.91 494.58 C 423.72 495.38 420.44 494.76 408.00 491.72 M 346.00 491.00 C 346.00 490.45 346.45 490.00 347.00 490.00 C 347.55 490.00 348.00 490.45 348.00 491.00 C 348.00 491.55 347.55 492.00 347.00 492.00 C 346.45 492.00 346.00 491.55 346.00 491.00 M 341.50 490.33 C 337.99 489.55 336.70 488.97 337.25 488.41 C 338.08 487.58 345.00 489.10 345.00 490.11 C 345.00 491.04 344.78 491.05 341.50 490.33 M 332.50 488.17 C 331.34 487.01 332.14 486.22 334.00 486.71 C 335.10 487.00 336.00 487.56 336.00 487.95 C 336.00 488.76 333.26 488.93 332.50 488.17 M 327.75 487.24 C 325.17 486.67 325.62 484.95 328.25 485.36 C 329.49 485.54 330.43 486.03 330.33 486.43 C 330.08 487.54 329.66 487.67 327.75 487.24 M 382.50 485.45 C 377.55 484.15 361.64 480.27 347.14 476.83 C 332.64 473.39 321.20 470.43 321.72 470.26 C 322.90 469.87 394.02 486.70 394.92 487.59 C 395.86 488.52 390.97 487.68 382.50 485.45 M 322.46 485.93 C 322.10 485.35 322.04 484.63 322.33 484.33 C 323.05 483.62 325.00 484.88 325.00 486.06 C 325.00 487.34 323.27 487.25 322.46 485.93 M 317.00 484.00 C 317.00 483.45 317.65 483.00 318.44 483.00 C 319.23 483.00 320.16 483.45 320.50 484.00 C 320.84 484.55 320.19 485.00 319.06 485.00 C 317.93 485.00 317.00 484.55 317.00 484.00 M 312.50 483.00 C 312.16 482.45 312.84 482.00 314.00 482.00 C 315.16 482.00 315.84 482.45 315.50 483.00 C 315.16 483.55 314.49 484.00 314.00 484.00 C 313.51 484.00 312.84 483.55 312.50 483.00 M 308.00 482.00 C 308.00 481.45 308.70 481.00 309.56 481.00 C 310.42 481.00 310.84 481.45 310.50 482.00 C 310.16 482.55 309.46 483.00 308.94 483.00 C 308.42 483.00 308.00 482.55 308.00 482.00 M 303.49 480.98 C 303.14 480.42 302.45 480.22 301.95 480.53 C 300.95 481.15 296.55 479.12 297.29 478.37 C 298.12 477.54 306.99 480.20 306.43 481.12 C 305.70 482.30 304.26 482.24 303.49 480.98 M 294.00 478.50 C 294.00 477.68 294.45 477.00 295.00 477.00 C 295.55 477.00 296.00 477.68 296.00 478.50 C 296.00 479.32 295.55 480.00 295.00 480.00 C 294.45 480.00 294.00 479.32 294.00 478.50 M 290.49 478.01 C 290.84 477.44 290.44 477.28 289.55 477.62 C 288.70 477.95 288.00 477.72 288.00 477.11 C 288.00 476.50 288.90 476.00 290.00 476.00 C 291.11 476.00 292.00 476.67 292.00 477.50 C 292.00 478.32 291.52 479.00 290.94 479.00 C 290.36 479.00 290.16 478.56 290.49 478.01 M 285.00 476.00 C 285.00 475.45 285.45 475.00 286.00 475.00 C 286.55 475.00 287.00 475.45 287.00 476.00 C 287.00 476.55 286.55 477.00 286.00 477.00 C 285.45 477.00 285.00 476.55 285.00 476.00 M 281.00 475.00 C 281.00 474.45 281.45 474.00 282.00 474.00 C 282.55 474.00 283.00 474.45 283.00 475.00 C 283.00 475.55 282.55 476.00 282.00 476.00 C 281.45 476.00 281.00 475.55 281.00 475.00 M 275.03 474.04 C 274.22 473.53 273.91 472.76 274.33 472.33 C 274.76 471.91 275.46 472.12 275.88 472.81 C 276.31 473.50 277.41 473.78 278.33 473.43 C 279.27 473.07 280.00 473.27 280.00 473.89 C 280.00 475.23 277.06 475.32 275.03 474.04 M 375.00 464.53 C 356.57 459.99 330.81 453.68 317.75 450.52 C 300.91 446.45 294.00 444.37 294.00 443.39 C 294.00 442.62 294.41 442.00 294.90 442.00 C 296.24 442.00 379.92 462.37 398.23 467.15 C 406.88 469.41 413.71 471.65 413.42 472.13 C 412.50 473.62 409.41 473.01 375.00 464.53 M 314.50 469.00 C 311.95 467.90 314.58 467.90 318.00 469.00 C 320.01 469.64 320.11 469.81 318.50 469.83 C 317.40 469.85 315.60 469.47 314.50 469.00 M 296.81 465.03 C 284.42 462.04 280.21 460.71 286.00 461.61 C 291.76 462.51 312.66 467.82 310.50 467.84 C 309.40 467.84 303.24 466.58 296.81 465.03 M 357.00 427.05 C 310.73 415.86 312.00 416.21 312.00 414.46 C 312.00 413.66 312.40 413.00 312.88 413.00 C 313.37 413.00 325.63 415.88 340.13 419.40 C 354.64 422.91 373.60 427.49 382.28 429.57 C 391.70 431.82 397.91 433.78 397.70 434.42 C 397.50 435.01 396.48 435.58 395.42 435.69 C 394.36 435.79 377.07 431.90 357.00 427.05 M 401.04 408.27 C 395.83 406.97 391.37 405.70 391.12 405.45 C 389.69 404.02 392.68 404.42 401.95 406.89 C 407.67 408.42 411.93 409.88 411.42 410.15 C 410.92 410.41 406.24 409.57 401.04 408.27 M 387.50 405.22 C 384.62 404.62 383.18 403.00 385.55 403.02 C 387.61 403.03 390.77 404.63 389.97 405.26 C 389.71 405.47 388.60 405.45 387.50 405.22 M 381.00 403.09 C 381.00 402.60 380.10 402.42 379.00 402.71 C 377.90 403.00 377.00 402.79 377.00 402.25 C 377.00 401.43 378.84 401.29 382.25 401.87 C 383.38 402.06 383.15 404.00 382.00 404.00 C 381.45 404.00 381.00 403.59 381.00 403.09 M 374.00 401.00 C 374.00 400.45 374.45 400.00 375.00 400.00 C 375.55 400.00 376.00 400.45 376.00 401.00 C 376.00 401.55 375.55 402.00 375.00 402.00 C 374.45 402.00 374.00 401.55 374.00 401.00 M 368.46 399.93 C 368.09 399.34 367.17 399.11 366.40 399.40 C 365.63 399.70 365.00 399.47 365.00 398.89 C 365.00 398.23 366.22 398.10 368.25 398.53 C 372.27 399.37 374.25 401.00 371.26 401.00 C 370.08 401.00 368.82 400.52 368.46 399.93 M 361.00 398.00 C 361.00 397.45 361.68 397.00 362.50 397.00 C 363.32 397.00 364.00 397.45 364.00 398.00 C 364.00 398.55 363.32 399.00 362.50 399.00 C 361.68 399.00 361.00 398.55 361.00 398.00 M 356.00 396.59 C 356.00 395.68 356.70 395.37 357.99 395.71 C 359.08 395.99 359.73 396.63 359.43 397.11 C 358.56 398.53 356.00 398.14 356.00 396.59 M 353.00 396.00 C 353.00 395.45 353.45 395.00 354.00 395.00 C 354.55 395.00 355.00 395.45 355.00 396.00 C 355.00 396.55 354.55 397.00 354.00 397.00 C 353.45 397.00 353.00 396.55 353.00 396.00 M 349.00 395.00 C 349.00 394.45 349.68 394.00 350.50 394.00 C 351.32 394.00 352.00 394.45 352.00 395.00 C 352.00 395.55 351.32 396.00 350.50 396.00 C 349.68 396.00 349.00 395.55 349.00 395.00 M 343.00 393.78 C 343.00 392.64 346.77 392.82 347.50 393.99 C 347.85 394.57 347.04 394.90 345.55 394.78 C 344.15 394.66 343.00 394.21 343.00 393.78 M 340.00 393.00 C 340.00 392.45 340.45 392.00 341.00 392.00 C 341.55 392.00 342.00 392.45 342.00 393.00 C 342.00 393.55 341.55 394.00 341.00 394.00 C 340.45 394.00 340.00 393.55 340.00 393.00 M 335.84 392.51 C 335.44 392.11 331.46 391.40 327.75 391.07 C 327.34 391.03 327.00 390.50 327.00 389.88 C 327.00 389.20 327.87 389.02 329.25 389.42 C 332.10 390.26 335.15 391.05 336.72 391.36 C 338.65 391.75 339.49 393.00 337.83 393.00 C 337.01 393.00 336.11 392.78 335.84 392.51 M 412.77 388.42 C 407.96 387.15 402.59 385.95 400.83 385.75 C 399.07 385.55 397.47 384.90 397.27 384.31 C 397.04 383.61 398.90 383.73 402.71 384.66 C 405.89 385.43 411.76 386.84 415.75 387.78 C 419.74 388.72 423.00 389.83 423.00 390.25 C 423.00 391.16 423.51 391.25 412.77 388.42 M 393.55 384.09 C 393.23 383.56 393.39 382.87 393.91 382.55 C 394.44 382.23 395.13 382.39 395.45 382.91 C 395.77 383.44 395.61 384.13 395.09 384.45 C 394.56 384.77 393.87 384.61 393.55 384.09 M 387.50 383.11 C 385.85 382.75 384.95 382.17 385.51 381.82 C 386.85 380.97 392.00 382.00 392.00 383.12 C 392.00 384.08 391.93 384.07 387.50 383.11 M 381.50 381.00 C 381.84 380.45 382.54 380.00 383.06 380.00 C 383.58 380.00 384.00 380.45 384.00 381.00 C 384.00 381.55 383.30 382.00 382.44 382.00 C 381.58 382.00 381.16 381.55 381.50 381.00 M 377.89 380.55 C 377.64 380.31 375.88 379.85 373.97 379.54 C 366.83 378.36 365.00 377.81 365.00 376.85 C 365.00 376.31 365.79 376.09 366.75 376.36 C 367.71 376.63 370.07 377.20 372.00 377.62 C 373.93 378.04 375.84 378.47 376.25 378.57 C 376.66 378.67 377.68 378.81 378.50 378.88 C 379.32 378.94 380.00 379.45 380.00 380.00 C 380.00 381.02 378.69 381.36 377.89 380.55 M 361.00 376.00 C 361.00 375.45 361.68 375.00 362.50 375.00 C 363.32 375.00 364.00 375.45 364.00 376.00 C 364.00 376.55 363.32 377.00 362.50 377.00 C 361.68 377.00 361.00 376.55 361.00 376.00 M 355.75 375.42 C 355.13 374.80 350.57 373.93 347.75 373.90 C 346.79 373.88 346.00 373.40 346.00 372.82 C 346.00 372.20 346.92 372.04 348.25 372.42 C 350.59 373.11 356.58 374.16 358.75 374.27 C 359.44 374.31 360.00 374.71 360.00 375.17 C 360.00 376.11 356.64 376.31 355.75 375.42 M 342.25 372.34 C 340.20 371.51 340.83 370.14 343.00 370.71 C 344.10 371.00 345.00 371.63 345.00 372.12 C 345.00 373.07 344.22 373.13 342.25 372.34 M 338.50 371.00 C 338.84 370.45 339.32 370.00 339.56 370.00 C 339.80 370.00 340.00 370.45 340.00 371.00 C 340.00 371.55 339.52 372.00 338.94 372.00 C 338.36 372.00 338.16 371.55 338.50 371.00 M 432.89 371.55 C 432.64 371.31 428.86 370.36 424.47 369.45 C 420.09 368.53 416.05 367.68 415.50 367.55 C 412.08 366.76 406.40 365.58 405.83 365.55 C 405.47 365.52 404.86 365.19 404.49 364.82 C 404.11 364.44 403.17 364.38 402.40 364.68 C 401.63 364.97 401.00 364.72 401.00 364.11 C 401.00 362.62 401.57 362.67 412.26 365.08 C 417.34 366.23 422.18 367.31 423.00 367.49 C 429.60 368.93 434.00 370.38 434.00 371.12 C 434.00 372.08 433.58 372.25 432.89 371.55 M 397.00 362.94 C 397.00 362.35 396.03 362.02 394.84 362.19 C 393.66 362.36 392.51 361.98 392.29 361.34 C 392.00 360.48 392.93 360.45 395.95 361.21 C 399.89 362.21 401.52 364.00 398.50 364.00 C 397.68 364.00 397.00 363.52 397.00 362.94 M 381.85 359.86 C 378.95 358.92 376.33 358.16 376.04 358.19 C 374.08 358.36 372.97 357.86 373.48 357.04 C 373.84 356.46 374.98 356.42 376.37 356.95 C 377.63 357.43 380.38 358.10 382.48 358.43 C 388.51 359.39 391.00 360.15 391.00 361.05 C 391.00 362.24 387.91 361.84 381.85 359.86 M 369.75 357.31 C 368.79 357.06 368.00 356.48 368.00 356.02 C 368.00 355.56 368.90 355.42 370.00 355.71 C 371.10 356.00 372.00 356.63 372.00 357.12 C 372.00 357.60 371.89 357.95 371.75 357.88 C 371.61 357.82 370.71 357.56 369.75 357.31 M 365.67 356.33 C 365.30 355.97 365.00 355.20 365.00 354.63 C 365.00 354.01 365.47 354.07 366.18 354.78 C 366.83 355.43 367.13 356.20 366.85 356.48 C 366.57 356.77 366.03 356.70 365.67 356.33 M 359.50 354.75 C 357.30 354.25 354.82 353.59 354.00 353.27 C 353.18 352.95 351.71 352.79 350.75 352.91 C 349.79 353.03 349.00 352.59 349.00 351.94 C 349.00 351.12 350.00 350.97 352.25 351.48 C 354.04 351.88 357.21 352.55 359.29 352.98 C 362.96 353.72 364.78 354.65 363.92 355.33 C 363.69 355.51 361.70 355.26 359.50 354.75 M 441.92 351.58 C 441.69 351.36 439.48 350.87 437.00 350.50 C 432.43 349.82 431.30 349.37 432.12 348.54 C 432.38 348.29 435.17 348.69 438.34 349.42 C 444.05 350.75 446.71 352.00 443.83 352.00 C 443.01 352.00 442.15 351.81 441.92 351.58 M 420.22 346.92 C 416.76 346.01 413.72 345.21 413.47 345.13 C 413.21 345.06 412.66 344.95 412.25 344.88 C 411.84 344.82 411.05 344.66 410.50 344.54 C 409.95 344.41 408.94 344.24 408.25 344.15 C 407.56 344.07 407.00 343.57 407.00 343.05 C 407.00 342.51 409.08 342.72 411.75 343.53 C 414.36 344.31 416.62 344.94 416.76 344.92 C 418.30 344.70 426.00 346.41 426.00 346.97 C 426.00 347.39 427.12 347.51 428.50 347.24 C 429.95 346.97 431.00 347.23 431.00 347.87 C 431.00 349.27 428.17 349.02 420.22 346.92 M 404.00 343.00 C 404.00 342.45 404.45 342.00 405.00 342.00 C 405.55 342.00 406.00 342.45 406.00 343.00 C 406.00 343.55 405.55 344.00 405.00 344.00 C 404.45 344.00 404.00 343.55 404.00 343.00 M 399.00 342.00 C 397.83 341.24 398.11 341.03 400.25 341.02 C 401.76 341.01 403.00 341.45 403.00 342.00 C 403.00 343.26 400.96 343.26 399.00 342.00 M 394.50 341.00 C 394.16 340.45 394.61 340.00 395.50 340.00 C 396.39 340.00 396.84 340.45 396.50 341.00 C 396.16 341.55 395.71 342.00 395.50 342.00 C 395.29 342.00 394.84 341.55 394.50 341.00 M 389.40 339.83 C 389.11 339.38 389.81 339.00 390.94 339.00 C 392.07 339.00 393.00 339.38 393.00 339.83 C 393.00 340.29 392.31 340.67 391.46 340.67 C 390.61 340.67 389.68 340.29 389.40 339.83 M 385.86 339.53 C 385.63 339.29 383.88 338.83 381.97 338.50 C 380.06 338.16 378.05 337.41 377.50 336.82 C 376.79 336.06 377.38 335.96 379.50 336.47 C 381.15 336.87 383.61 337.40 384.98 337.66 C 387.94 338.21 388.45 338.61 387.21 339.37 C 386.70 339.69 386.09 339.76 385.86 339.53 M 372.50 336.00 C 370.77 335.25 370.88 335.15 373.25 335.28 C 374.76 335.37 376.00 335.79 376.00 336.22 C 376.00 337.18 375.10 337.12 372.50 336.00 M 367.50 335.50 C 366.95 335.32 364.81 334.88 362.75 334.54 C 360.69 334.19 359.00 333.43 359.00 332.85 C 359.00 332.18 360.03 332.05 361.75 332.50 C 365.54 333.48 367.29 333.83 368.75 333.92 C 369.44 333.97 370.00 334.45 370.00 335.00 C 370.00 336.00 369.36 336.13 367.50 335.50 M 451.50 332.91 C 449.85 332.41 447.47 331.80 446.20 331.55 C 436.71 329.74 429.00 327.65 429.00 326.90 C 429.00 325.85 430.37 325.71 431.33 326.67 C 431.70 327.03 433.01 327.44 434.25 327.57 C 439.57 328.15 455.00 332.25 455.00 333.08 C 455.00 333.59 454.89 333.96 454.75 333.91 C 454.61 333.87 453.15 333.42 451.50 332.91 M 424.00 326.21 C 424.00 325.78 424.90 325.43 426.00 325.43 C 427.10 325.43 428.00 325.78 428.00 326.21 C 428.00 326.65 427.10 327.00 426.00 327.00 C 424.90 327.00 424.00 326.65 424.00 326.21 M 419.90 325.57 C 419.66 325.33 418.25 324.97 416.77 324.77 C 415.29 324.57 413.72 324.04 413.29 323.59 C 412.85 323.14 414.02 323.09 415.87 323.49 C 417.73 323.89 419.85 324.30 420.59 324.41 C 422.57 324.70 423.59 326.00 421.83 326.00 C 421.01 326.00 420.14 325.80 419.90 325.57 M 410.90 323.57 C 410.66 323.33 409.12 322.91 407.48 322.65 C 405.84 322.38 404.50 322.09 404.50 322.00 C 404.50 321.91 403.38 321.65 402.00 321.42 C 400.62 321.19 398.60 320.83 397.50 320.63 C 396.40 320.42 394.71 320.20 393.75 320.13 C 392.79 320.06 392.00 319.54 392.00 318.98 C 392.00 317.92 393.16 318.04 401.50 320.00 C 404.25 320.64 407.61 321.39 408.98 321.65 C 411.71 322.17 412.59 322.74 411.83 323.50 C 411.56 323.77 411.14 323.80 410.90 323.57 M 386.77 318.44 C 386.46 318.13 384.50 317.66 382.40 317.40 C 378.57 316.93 377.29 316.38 378.11 315.56 C 378.35 315.31 380.57 315.58 383.03 316.15 C 385.49 316.72 388.05 317.28 388.72 317.40 C 390.92 317.78 391.38 319.00 389.33 319.00 C 388.23 319.00 387.08 318.75 386.77 318.44 M 372.25 315.34 C 371.56 315.06 371.00 314.41 371.00 313.88 C 371.00 313.30 371.72 313.31 372.87 313.93 C 373.90 314.48 374.98 314.69 375.27 314.40 C 375.56 314.11 376.10 314.35 376.46 314.93 C 377.13 316.02 374.56 316.27 372.25 315.34 M 462.77 314.44 C 462.46 314.13 460.81 313.83 459.10 313.78 C 457.40 313.74 456.00 313.31 456.00 312.85 C 456.00 312.38 456.79 312.03 457.75 312.08 C 460.19 312.18 466.86 314.83 464.92 314.92 C 464.05 314.97 463.08 314.75 462.77 314.44 M 453.00 312.00 C 453.00 311.45 453.45 311.00 454.00 311.00 C 454.55 311.00 455.00 311.45 455.00 312.00 C 455.00 312.55 454.55 313.00 454.00 313.00 C 453.45 313.00 453.00 312.55 453.00 312.00 M 449.00 311.00 C 449.00 310.45 449.68 310.00 450.50 310.00 C 451.32 310.00 452.00 310.45 452.00 311.00 C 452.00 311.55 451.32 312.00 450.50 312.00 C 449.68 312.00 449.00 311.55 449.00 311.00 M 442.54 310.07 C 441.86 308.96 443.44 307.77 444.36 308.69 C 445.31 309.64 445.13 311.00 444.06 311.00 C 443.54 311.00 442.86 310.58 442.54 310.07 M 446.00 309.94 C 446.00 309.36 446.45 309.16 447.00 309.50 C 447.55 309.84 448.00 310.32 448.00 310.56 C 448.00 310.80 447.55 311.00 447.00 311.00 C 446.45 311.00 446.00 310.52 446.00 309.94 M 438.50 309.00 C 438.16 308.45 438.58 308.00 439.44 308.00 C 440.30 308.00 441.00 308.45 441.00 309.00 C 441.00 309.55 440.58 310.00 440.06 310.00 C 439.54 310.00 438.84 309.55 438.50 309.00 M 433.76 308.42 C 433.44 308.11 432.35 307.69 431.34 307.50 C 430.33 307.31 429.27 307.07 429.00 306.96 C 428.73 306.86 427.86 306.71 427.09 306.63 C 426.31 306.56 425.49 305.82 425.26 305.00 C 425.01 304.11 425.18 303.90 425.67 304.50 C 426.13 305.05 428.07 305.60 429.99 305.71 C 431.91 305.83 433.62 306.37 433.80 306.91 C 433.98 307.45 434.78 307.64 435.56 307.34 C 436.35 307.03 437.00 307.28 437.00 307.89 C 437.00 309.05 434.75 309.42 433.76 308.42 M 420.36 304.77 C 420.05 304.27 420.01 303.66 420.26 303.41 C 420.89 302.78 424.00 304.05 424.00 304.94 C 424.00 305.98 421.02 305.84 420.36 304.77 M 416.00 303.89 C 416.00 303.28 415.32 303.05 414.50 303.36 C 413.68 303.68 413.00 303.49 413.00 302.93 C 413.00 301.55 418.29 302.37 418.78 303.83 C 418.99 304.47 418.45 305.00 417.58 305.00 C 416.71 305.00 416.00 304.50 416.00 303.89 M 409.00 302.00 C 409.00 301.45 409.68 301.00 410.50 301.00 C 411.32 301.00 412.00 301.45 412.00 302.00 C 412.00 302.55 411.32 303.00 410.50 303.00 C 409.68 303.00 409.00 302.55 409.00 302.00 M 404.00 301.00 C 404.00 300.45 404.45 300.00 405.00 300.00 C 405.55 300.00 406.00 300.45 406.00 301.00 C 406.00 301.55 405.55 302.00 405.00 302.00 C 404.45 302.00 404.00 301.55 404.00 301.00 M 398.00 300.00 C 398.00 299.45 398.45 299.00 399.00 299.00 C 399.55 299.00 400.00 299.45 400.00 300.00 C 400.00 300.55 399.55 301.00 399.00 301.00 C 398.45 301.00 398.00 300.55 398.00 300.00 M 401.00 300.00 C 401.00 299.45 401.45 299.00 402.00 299.00 C 402.55 299.00 403.00 299.45 403.00 300.00 C 403.00 300.55 402.55 301.00 402.00 301.00 C 401.45 301.00 401.00 300.55 401.00 300.00 M 395.00 299.00 C 395.00 298.45 395.45 298.00 396.00 298.00 C 396.55 298.00 397.00 298.45 397.00 299.00 C 397.00 299.55 396.55 300.00 396.00 300.00 C 395.45 300.00 395.00 299.55 395.00 299.00 M 388.35 297.76 C 388.08 297.32 387.47 297.21 387.00 297.50 C 386.53 297.79 385.89 297.64 385.59 297.15 C 385.29 296.67 383.85 296.50 382.38 296.78 C 380.63 297.11 379.93 296.92 380.36 296.22 C 381.07 295.08 387.16 295.50 389.86 296.89 C 390.76 297.35 392.06 297.53 392.75 297.28 C 393.44 297.04 394.00 297.32 394.00 297.91 C 394.00 299.11 389.11 298.99 388.35 297.76 M 464.00 294.40 C 458.77 293.09 452.96 291.75 451.08 291.42 C 449.20 291.09 446.50 290.38 445.08 289.84 C 443.66 289.30 442.39 288.89 442.25 288.93 C 440.81 289.34 439.00 288.78 439.00 287.93 C 439.00 287.32 439.85 287.14 440.99 287.50 C 442.09 287.84 444.22 288.35 445.74 288.61 C 447.26 288.88 450.30 289.58 452.50 290.16 C 454.70 290.75 456.95 291.33 457.50 291.45 C 470.75 294.34 475.00 295.49 475.00 296.17 C 475.00 297.20 475.45 297.27 464.00 294.40 M 429.52 286.77 C 424.95 285.81 423.09 284.49 426.01 284.27 C 427.11 284.19 428.00 284.43 428.00 284.81 C 428.00 285.19 429.01 285.58 430.25 285.67 C 435.67 286.08 438.00 286.55 438.00 287.24 C 438.00 288.10 435.13 287.94 429.52 286.77 M 419.00 283.94 C 419.00 282.80 421.69 282.68 422.37 283.79 C 422.64 284.23 421.99 284.65 420.93 284.73 C 419.87 284.81 419.00 284.45 419.00 283.94 M 416.00 283.00 C 416.00 282.45 416.45 282.00 417.00 282.00 C 417.55 282.00 418.00 282.45 418.00 283.00 C 418.00 283.55 417.55 284.00 417.00 284.00 C 416.45 284.00 416.00 283.55 416.00 283.00 M 408.64 281.82 C 407.73 281.31 406.57 281.15 406.06 281.46 C 405.55 281.78 404.87 281.59 404.54 281.06 C 404.21 280.53 403.28 280.34 402.47 280.65 C 401.66 280.96 401.00 280.72 401.00 280.11 C 401.00 279.50 401.34 279.02 401.75 279.04 C 403.29 279.11 414.22 281.88 414.64 282.31 C 415.50 283.16 410.29 282.74 408.64 281.82 M 393.74 279.31 C 392.77 279.06 392.23 278.43 392.55 277.92 C 392.88 277.38 393.82 277.36 394.81 277.87 C 395.74 278.35 397.29 278.61 398.25 278.46 C 399.21 278.30 400.00 278.59 400.00 279.09 C 400.00 280.02 396.89 280.13 393.74 279.31 M 482.00 277.92 C 480.07 277.44 477.43 276.83 476.13 276.57 C 474.82 276.30 473.47 275.79 473.13 275.43 C 472.16 274.41 481.13 276.07 484.50 277.53 C 487.95 279.03 487.03 279.18 482.00 277.92 M 469.87 275.53 C 469.64 275.31 468.12 274.85 466.48 274.51 C 464.84 274.17 462.82 273.73 462.00 273.52 C 461.18 273.32 459.94 273.12 459.25 273.08 C 458.56 273.03 458.00 272.56 458.00 272.02 C 458.00 271.00 461.62 271.49 468.49 273.45 C 470.69 274.07 471.99 274.89 471.38 275.26 C 470.77 275.64 470.09 275.76 469.87 275.53 M 887.81 274.32 C 888.53 274.03 889.40 274.06 889.73 274.40 C 890.06 274.73 889.47 274.96 888.42 274.92 C 887.25 274.87 887.01 274.64 887.81 274.32 M 883.81 273.32 C 884.53 273.03 885.40 273.06 885.73 273.40 C 886.06 273.73 885.47 273.96 884.42 273.92 C 883.25 273.87 883.01 273.64 883.81 273.32 M 878.75 272.34 C 879.44 272.06 880.56 272.06 881.25 272.34 C 881.94 272.62 881.38 272.84 880.00 272.84 C 878.62 272.84 878.06 272.62 878.75 272.34 M 448.19 270.37 C 445.61 269.71 443.27 269.19 443.00 269.21 C 442.73 269.22 442.16 269.13 441.75 268.99 C 440.89 268.71 440.82 268.70 435.50 267.54 C 433.30 267.06 430.94 266.76 430.25 266.88 C 429.56 266.99 429.00 266.58 429.00 265.96 C 429.00 265.23 430.07 265.08 432.12 265.53 C 433.84 265.90 435.85 266.30 436.59 266.41 C 437.34 266.52 438.22 266.89 438.57 267.24 C 438.91 267.58 439.83 267.62 440.60 267.32 C 441.37 267.03 442.00 267.19 442.00 267.68 C 442.00 268.17 442.79 268.62 443.75 268.67 C 449.33 268.99 455.50 270.10 456.34 270.94 C 457.57 272.17 454.39 271.95 448.19 270.37 M 874.81 271.32 C 875.53 271.03 876.40 271.06 876.73 271.40 C 877.06 271.73 876.47 271.96 875.42 271.92 C 874.25 271.87 874.01 271.64 874.81 271.32 M 869.75 270.34 C 870.44 270.06 871.56 270.06 872.25 270.34 C 872.94 270.62 872.38 270.84 871.00 270.84 C 869.62 270.84 869.06 270.62 869.75 270.34 M 864.75 269.34 C 865.44 269.06 866.56 269.06 867.25 269.34 C 867.94 269.62 867.38 269.84 866.00 269.84 C 864.62 269.84 864.06 269.62 864.75 269.34 M 859.75 268.34 C 860.44 268.06 861.56 268.06 862.25 268.34 C 862.94 268.62 862.38 268.84 861.00 268.84 C 859.62 268.84 859.06 268.62 859.75 268.34 M 855.81 267.32 C 856.53 267.03 857.40 267.06 857.73 267.40 C 858.06 267.73 857.47 267.96 856.42 267.92 C 855.25 267.87 855.01 267.64 855.81 267.32 M 845.50 265.52 C 842.75 264.82 841.40 264.23 842.50 264.21 C 843.60 264.20 846.75 264.77 849.50 265.48 C 852.25 266.18 853.60 266.77 852.50 266.79 C 851.40 266.80 848.25 266.23 845.50 265.52 M 421.16 264.82 C 418.77 264.28 417.00 263.67 417.22 263.45 C 417.97 262.70 428.00 264.27 428.00 265.14 C 428.00 266.16 426.94 266.11 421.16 264.82 M 412.75 263.21 C 411.24 263.02 410.00 262.44 410.00 261.91 C 410.00 261.08 414.79 261.67 415.92 262.64 C 416.71 263.32 415.49 263.54 412.75 263.21 M 834.00 263.00 C 832.02 262.37 831.92 262.20 833.50 262.20 C 834.60 262.20 836.62 262.56 838.00 263.00 C 839.98 263.63 840.08 263.80 838.50 263.80 C 837.40 263.80 835.38 263.44 834.00 263.00 M 404.00 260.94 C 404.00 260.36 403.55 260.16 403.00 260.50 C 402.45 260.84 402.00 260.64 402.00 260.06 C 402.00 258.83 402.27 258.78 404.42 259.61 C 406.16 260.28 406.58 262.00 405.00 262.00 C 404.45 262.00 404.00 261.52 404.00 260.94 M 407.00 260.94 C 407.00 260.36 407.45 260.16 408.00 260.50 C 408.55 260.84 409.00 261.32 409.00 261.56 C 409.00 261.80 408.55 262.00 408.00 262.00 C 407.45 262.00 407.00 261.52 407.00 260.94 M 827.75 261.34 C 828.44 261.06 829.56 261.06 830.25 261.34 C 830.94 261.62 830.38 261.84 829.00 261.84 C 827.62 261.84 827.06 261.62 827.75 261.34 M 492.89 260.56 C 492.68 260.35 488.90 259.42 484.50 258.50 C 474.49 256.39 473.62 256.20 473.00 255.96 C 472.73 255.85 472.21 255.80 471.86 255.84 C 471.51 255.89 469.75 255.50 467.96 254.99 C 466.16 254.47 462.85 253.78 460.59 253.45 C 458.34 253.12 456.05 252.38 455.50 251.79 C 454.80 251.05 455.55 250.95 458.00 251.44 C 459.93 251.82 462.62 252.36 464.00 252.64 C 465.38 252.92 467.29 253.21 468.25 253.29 C 469.21 253.36 470.00 253.68 470.00 254.00 C 470.00 254.31 470.79 254.61 471.75 254.66 C 477.18 254.94 495.56 259.53 494.32 260.30 C 493.75 260.66 493.10 260.77 492.89 260.56 M 823.81 260.32 C 824.53 260.03 825.40 260.06 825.73 260.40 C 826.06 260.73 825.47 260.96 824.42 260.92 C 823.25 260.87 823.01 260.64 823.81 260.32 M 816.00 259.00 C 814.02 258.37 813.92 258.20 815.50 258.20 C 816.60 258.20 818.62 258.56 820.00 259.00 C 821.98 259.63 822.08 259.80 820.50 259.80 C 819.40 259.80 817.38 259.44 816.00 259.00 M 810.81 257.32 C 811.53 257.03 812.40 257.06 812.73 257.40 C 813.06 257.73 812.47 257.96 811.42 257.92 C 810.25 257.87 810.01 257.64 810.81 257.32 M 805.75 256.34 C 806.44 256.06 807.56 256.06 808.25 256.34 C 808.94 256.62 808.38 256.84 807.00 256.84 C 805.62 256.84 805.06 256.62 805.75 256.34 M 801.81 255.32 C 802.53 255.03 803.40 255.06 803.73 255.40 C 804.06 255.73 803.47 255.96 802.42 255.92 C 801.25 255.87 801.01 255.64 801.81 255.32 M 796.75 254.34 C 797.44 254.06 798.56 254.06 799.25 254.34 C 799.94 254.62 799.38 254.84 798.00 254.84 C 796.62 254.84 796.06 254.62 796.75 254.34 M 791.75 253.34 C 792.44 253.06 793.56 253.06 794.25 253.34 C 794.94 253.62 794.38 253.84 793.00 253.84 C 791.62 253.84 791.06 253.62 791.75 253.34 M 784.00 252.00 C 782.02 251.37 781.92 251.20 783.50 251.20 C 784.60 251.20 786.62 251.56 788.00 252.00 C 789.98 252.63 790.08 252.80 788.50 252.80 C 787.40 252.80 785.38 252.44 784.00 252.00 M 451.90 251.57 C 451.66 251.33 450.12 250.91 448.48 250.65 C 446.84 250.38 445.50 250.10 445.50 250.01 C 445.50 249.93 444.21 249.69 442.64 249.49 C 439.69 249.10 438.32 248.34 439.13 247.54 C 439.38 247.28 441.94 247.69 444.82 248.45 C 450.97 250.08 450.60 250.00 452.50 250.00 C 453.32 250.00 454.00 250.45 454.00 251.00 C 454.00 252.01 452.70 252.36 451.90 251.57 M 777.75 250.34 C 778.44 250.06 779.56 250.06 780.25 250.34 C 780.94 250.62 780.38 250.84 779.00 250.84 C 777.62 250.84 777.06 250.62 777.75 250.34 M 772.75 249.34 C 773.44 249.06 774.56 249.06 775.25 249.34 C 775.94 249.62 775.38 249.84 774.00 249.84 C 772.62 249.84 772.06 249.62 772.75 249.34 M 435.50 248.00 C 435.16 247.45 435.61 247.00 436.50 247.00 C 437.39 247.00 437.84 247.45 437.50 248.00 C 437.16 248.55 436.71 249.00 436.50 249.00 C 436.29 249.00 435.84 248.55 435.50 248.00 M 765.00 248.00 C 763.02 247.37 762.92 247.20 764.50 247.20 C 765.60 247.20 767.62 247.56 769.00 248.00 C 770.98 248.63 771.08 248.80 769.50 248.80 C 768.40 248.80 766.38 248.44 765.00 248.00 M 432.50 247.00 C 432.16 246.45 432.36 246.00 432.94 246.00 C 433.52 246.00 434.00 246.45 434.00 247.00 C 434.00 247.55 433.80 248.00 433.56 248.00 C 433.32 248.00 432.84 247.55 432.50 247.00 M 427.08 245.42 C 427.13 244.25 427.36 244.01 427.68 244.81 C 427.97 245.53 427.94 246.40 427.60 246.73 C 427.27 247.06 427.04 246.47 427.08 245.42 M 429.00 246.00 C 429.00 245.45 429.45 245.00 430.00 245.00 C 430.55 245.00 431.00 245.45 431.00 246.00 C 431.00 246.55 430.55 247.00 430.00 247.00 C 429.45 247.00 429.00 246.55 429.00 246.00 M 758.75 246.34 C 759.44 246.06 760.56 246.06 761.25 246.34 C 761.94 246.62 761.38 246.84 760.00 246.84 C 758.62 246.84 758.06 246.62 758.75 246.34 M 423.00 245.00 C 421.79 244.22 421.93 244.03 423.75 244.02 C 424.99 244.01 426.00 244.45 426.00 245.00 C 426.00 246.25 424.94 246.25 423.00 245.00 M 754.81 245.32 C 755.53 245.03 756.40 245.06 756.73 245.40 C 757.06 245.73 756.47 245.96 755.42 245.92 C 754.25 245.87 754.01 245.64 754.81 245.32 M 417.58 244.13 C 417.24 243.58 416.07 243.29 414.98 243.50 C 413.89 243.71 413.00 243.46 413.00 242.94 C 413.00 241.64 417.73 241.75 418.54 243.07 C 418.90 243.65 418.98 244.36 418.70 244.63 C 418.43 244.91 417.92 244.68 417.58 244.13 M 749.75 244.34 C 750.44 244.06 751.56 244.06 752.25 244.34 C 752.94 244.62 752.38 244.84 751.00 244.84 C 749.62 244.84 749.06 244.62 749.75 244.34 M 501.50 242.90 C 499.85 242.39 497.38 241.81 496.00 241.62 C 489.52 240.72 473.16 236.54 473.57 235.89 C 473.81 235.49 475.64 235.61 477.63 236.16 C 481.52 237.24 484.06 237.83 488.00 238.58 C 489.38 238.84 493.88 239.81 498.00 240.73 C 502.12 241.65 506.11 242.28 506.85 242.13 C 507.59 241.99 507.90 242.35 507.54 242.93 C 506.77 244.18 505.61 244.17 501.50 242.90 M 745.81 243.32 C 746.53 243.03 747.40 243.06 747.73 243.40 C 748.06 243.73 747.47 243.96 746.42 243.92 C 745.25 243.87 745.01 243.64 745.81 243.32 M 741.81 242.32 C 742.53 242.03 743.40 242.06 743.73 242.40 C 744.06 242.73 743.47 242.96 742.42 242.92 C 741.25 242.87 741.01 242.64 741.81 242.32 M 736.81 241.32 C 737.53 241.03 738.40 241.06 738.73 241.40 C 739.06 241.73 738.47 241.96 737.42 241.92 C 736.25 241.87 736.01 241.64 736.81 241.32 M 731.75 240.34 C 732.44 240.06 733.56 240.06 734.25 240.34 C 734.94 240.62 734.38 240.84 733.00 240.84 C 731.62 240.84 731.06 240.62 731.75 240.34 M 727.81 239.32 C 728.53 239.03 729.40 239.06 729.73 239.40 C 730.06 239.73 729.47 239.96 728.42 239.92 C 727.25 239.87 727.01 239.64 727.81 239.32 M 722.75 238.34 C 723.44 238.06 724.56 238.06 725.25 238.34 C 725.94 238.62 725.38 238.84 724.00 238.84 C 722.62 238.84 722.06 238.62 722.75 238.34 M 718.81 237.32 C 719.53 237.03 720.40 237.06 720.73 237.40 C 721.06 237.73 720.47 237.96 719.42 237.92 C 718.25 237.87 718.01 237.64 718.81 237.32 M 713.75 236.34 C 714.44 236.06 715.56 236.06 716.25 236.34 C 716.94 236.62 716.38 236.84 715.00 236.84 C 713.62 236.84 713.06 236.62 713.75 236.34 M 467.00 235.00 C 467.00 234.45 467.45 234.00 468.00 234.00 C 468.55 234.00 469.00 234.45 469.00 235.00 C 469.00 235.55 468.55 236.00 468.00 236.00 C 467.45 236.00 467.00 235.55 467.00 235.00 M 708.75 235.34 C 709.44 235.06 710.56 235.06 711.25 235.34 C 711.94 235.62 711.38 235.84 710.00 235.84 C 708.62 235.84 708.06 235.62 708.75 235.34 M 460.61 234.28 C 460.24 233.91 459.39 233.51 458.72 233.40 C 456.54 233.03 452.59 232.19 448.30 231.20 C 445.99 230.67 443.85 230.48 443.55 230.78 C 443.25 231.09 443.00 230.81 443.00 230.17 C 443.00 228.54 444.97 228.69 454.33 231.08 C 463.18 233.34 463.59 233.52 462.21 234.37 C 461.70 234.69 460.98 234.64 460.61 234.28 M 464.00 234.00 C 464.00 233.45 464.45 233.00 465.00 233.00 C 465.55 233.00 466.00 233.45 466.00 234.00 C 466.00 234.55 465.55 235.00 465.00 235.00 C 464.45 235.00 464.00 234.55 464.00 234.00 M 703.75 234.34 C 704.44 234.06 705.56 234.06 706.25 234.34 C 706.94 234.62 706.38 234.84 705.00 234.84 C 703.62 234.84 703.06 234.62 703.75 234.34 M 699.81 233.32 C 700.53 233.03 701.40 233.06 701.73 233.40 C 702.06 233.73 701.47 233.96 700.42 233.92 C 699.25 233.87 699.01 233.64 699.81 233.32 M 694.75 232.34 C 695.44 232.06 696.56 232.06 697.25 232.34 C 697.94 232.62 697.38 232.84 696.00 232.84 C 694.62 232.84 694.06 232.62 694.75 232.34 M 690.81 231.32 C 691.53 231.03 692.40 231.06 692.73 231.40 C 693.06 231.73 692.47 231.96 691.42 231.92 C 690.25 231.87 690.01 231.64 690.81 231.32 M 685.75 230.34 C 686.44 230.06 687.56 230.06 688.25 230.34 C 688.94 230.62 688.38 230.84 687.00 230.84 C 685.62 230.84 685.06 230.62 685.75 230.34 M 440.85 229.51 C 440.58 229.25 438.59 228.79 436.43 228.50 C 427.91 227.35 422.90 225.97 423.53 224.96 C 423.83 224.47 425.07 224.45 426.29 224.90 C 427.50 225.35 431.54 226.28 435.25 226.97 C 438.96 227.66 442.00 228.63 442.00 229.11 C 442.00 230.10 441.58 230.25 440.85 229.51 M 681.81 229.32 C 682.53 229.03 683.40 229.06 683.73 229.40 C 684.06 229.73 683.47 229.96 682.42 229.92 C 681.25 229.87 681.01 229.64 681.81 229.32 M 676.75 228.34 C 677.44 228.06 678.56 228.06 679.25 228.34 C 679.94 228.62 679.38 228.84 678.00 228.84 C 676.62 228.84 676.06 228.62 676.75 228.34 M 510.00 226.36 L 505.50 224.99 L 509.50 225.57 C 511.70 225.89 514.06 226.19 514.75 226.24 C 515.44 226.29 516.00 226.71 516.00 227.17 C 516.00 228.16 515.78 228.13 510.00 226.36 M 672.81 227.32 C 673.53 227.03 674.40 227.06 674.73 227.40 C 675.06 227.73 674.47 227.96 673.42 227.92 C 672.25 227.87 672.01 227.64 672.81 227.32 M 667.81 226.32 C 668.53 226.03 669.40 226.06 669.73 226.40 C 670.06 226.73 669.47 226.96 668.42 226.92 C 667.25 226.87 667.01 226.64 667.81 226.32 M 662.75 225.34 C 663.44 225.06 664.56 225.06 665.25 225.34 C 665.94 225.62 665.38 225.84 664.00 225.84 C 662.62 225.84 662.06 225.62 662.75 225.34 M 501.75 224.34 C 502.44 224.06 503.56 224.06 504.25 224.34 C 504.94 224.62 504.38 224.84 503.00 224.84 C 501.62 224.84 501.06 224.62 501.75 224.34 M 658.81 224.32 C 659.53 224.03 660.40 224.06 660.73 224.40 C 661.06 224.73 660.47 224.96 659.42 224.92 C 658.25 224.87 658.01 224.64 658.81 224.32 M 496.00 223.09 C 496.00 222.60 496.90 222.42 498.00 222.71 C 499.10 223.00 500.00 223.41 500.00 223.62 C 500.00 223.83 499.10 224.00 498.00 224.00 C 496.90 224.00 496.00 223.59 496.00 223.09 M 654.81 223.32 C 655.53 223.03 656.40 223.06 656.73 223.40 C 657.06 223.73 656.47 223.96 655.42 223.92 C 654.25 223.87 654.01 223.64 654.81 223.32 M 492.81 222.32 C 493.53 222.03 494.40 222.06 494.73 222.40 C 495.06 222.73 494.47 222.96 493.42 222.92 C 492.25 222.87 492.01 222.64 492.81 222.32 M 649.81 222.32 C 650.53 222.03 651.40 222.06 651.73 222.40 C 652.06 222.73 651.47 222.96 650.42 222.92 C 649.25 222.87 649.01 222.64 649.81 222.32 M 487.75 221.34 C 488.44 221.06 489.56 221.06 490.25 221.34 C 490.94 221.62 490.38 221.84 489.00 221.84 C 487.62 221.84 487.06 221.62 487.75 221.34 M 644.75 221.34 C 645.44 221.06 646.56 221.06 647.25 221.34 C 647.94 221.62 647.38 221.84 646.00 221.84 C 644.62 221.84 644.06 221.62 644.75 221.34 M 479.25 220.29 C 475.87 219.64 476.54 218.28 480.00 218.79 C 481.65 219.03 483.00 219.63 483.00 220.11 C 483.00 220.60 482.66 220.94 482.25 220.86 C 481.84 220.79 480.49 220.53 479.25 220.29 M 640.81 220.32 C 641.53 220.03 642.40 220.06 642.73 220.40 C 643.06 220.73 642.47 220.96 641.42 220.92 C 640.25 220.87 640.01 220.64 640.81 220.32 M 635.81 219.32 C 636.53 219.03 637.40 219.06 637.73 219.40 C 638.06 219.73 637.47 219.96 636.42 219.92 C 635.25 219.87 635.01 219.64 635.81 219.32 M 470.00 218.01 C 468.07 217.60 464.94 216.95 463.03 216.58 C 461.12 216.20 459.33 215.67 459.06 215.39 C 458.23 214.56 467.92 216.10 472.37 217.50 C 476.89 218.92 475.55 219.21 470.00 218.01 M 630.75 218.34 C 631.44 218.06 632.56 218.06 633.25 218.34 C 633.94 218.62 633.38 218.84 632.00 218.84 C 630.62 218.84 630.06 218.62 630.75 218.34 M 625.75 217.34 C 626.44 217.06 627.56 217.06 628.25 217.34 C 628.94 217.62 628.38 217.84 627.00 217.84 C 625.62 217.84 625.06 217.62 625.75 217.34 M 621.81 216.32 C 622.53 216.03 623.40 216.06 623.73 216.40 C 624.06 216.73 623.47 216.96 622.42 216.92 C 621.25 216.87 621.01 216.64 621.81 216.32 M 616.81 215.32 C 617.53 215.03 618.40 215.06 618.73 215.40 C 619.06 215.73 618.47 215.96 617.42 215.92 C 616.25 215.87 616.01 215.64 616.81 215.32 M 449.75 213.77 C 447.14 213.23 445.00 212.46 445.00 212.07 C 445.00 211.67 447.25 211.81 450.00 212.37 C 452.75 212.93 455.00 213.76 455.00 214.20 C 455.00 214.64 454.89 214.95 454.75 214.88 C 454.61 214.82 452.36 214.32 449.75 213.77 M 612.81 214.32 C 613.53 214.03 614.40 214.06 614.73 214.40 C 615.06 214.73 614.47 214.96 613.42 214.92 C 612.25 214.87 612.01 214.64 612.81 214.32 M 607.81 213.32 C 608.53 213.03 609.40 213.06 609.73 213.40 C 610.06 213.73 609.47 213.96 608.42 213.92 C 607.25 213.87 607.01 213.64 607.81 213.32 M 602.81 212.32 C 603.53 212.03 604.40 212.06 604.73 212.40 C 605.06 212.73 604.47 212.96 603.42 212.92 C 602.25 212.87 602.01 212.64 602.81 212.32 M 440.00 211.00 C 440.00 209.75 441.06 209.75 443.00 211.00 C 444.21 211.78 444.07 211.97 442.25 211.98 C 441.01 211.99 440.00 211.55 440.00 211.00 M 598.81 211.32 C 599.53 211.03 600.40 211.06 600.73 211.40 C 601.06 211.73 600.47 211.96 599.42 211.92 C 598.25 211.87 598.01 211.64 598.81 211.32 M 433.25 210.29 C 432.01 210.06 431.00 209.50 431.00 209.07 C 431.00 208.63 432.12 208.49 433.50 208.76 C 434.88 209.02 436.00 209.63 436.00 210.12 C 436.00 210.60 435.89 210.94 435.75 210.86 C 435.61 210.79 434.49 210.53 433.25 210.29 M 593.81 210.32 C 594.53 210.03 595.40 210.06 595.73 210.40 C 596.06 210.73 595.47 210.96 594.42 210.92 C 593.25 210.87 593.01 210.64 593.81 210.32 M 589.81 209.32 C 590.53 209.03 591.40 209.06 591.73 209.40 C 592.06 209.73 591.47 209.96 590.42 209.92 C 589.25 209.87 589.01 209.64 589.81 209.32 M 584.81 208.32 C 585.53 208.03 586.40 208.06 586.73 208.40 C 587.06 208.73 586.47 208.96 585.42 208.92 C 584.25 208.87 584.01 208.64 584.81 208.32 M 580.81 207.32 C 581.53 207.03 582.40 207.06 582.73 207.40 C 583.06 207.73 582.47 207.96 581.42 207.92 C 580.25 207.87 580.01 207.64 580.81 207.32 M 575.81 206.32 C 576.53 206.03 577.40 206.06 577.73 206.40 C 578.06 206.73 577.47 206.96 576.42 206.92 C 575.25 206.87 575.01 206.64 575.81 206.32 M 570.81 205.32 C 571.53 205.03 572.40 205.06 572.73 205.40 C 573.06 205.73 572.47 205.96 571.42 205.92 C 570.25 205.87 570.01 205.64 570.81 205.32 M 561.81 203.32 C 562.53 203.03 563.40 203.06 563.73 203.40 C 564.06 203.73 563.47 203.96 562.42 203.92 C 561.25 203.87 561.01 203.64 561.81 203.32 M 557.81 202.32 C 558.53 202.03 559.40 202.06 559.73 202.40 C 560.06 202.73 559.47 202.96 558.42 202.92 C 557.25 202.87 557.01 202.64 557.81 202.32 M 552.81 201.32 C 553.53 201.03 554.40 201.06 554.73 201.40 C 555.06 201.73 554.47 201.96 553.42 201.92 C 552.25 201.87 552.01 201.64 552.81 201.32 M 543.81 199.32 C 544.53 199.03 545.40 199.06 545.73 199.40 C 546.06 199.73 545.47 199.96 544.42 199.92 C 543.25 199.87 543.01 199.64 543.81 199.32 M 534.81 197.32 C 535.53 197.03 536.40 197.06 536.73 197.40 C 537.06 197.73 536.47 197.96 535.42 197.92 C 534.25 197.87 534.01 197.64 534.81 197.32 M 529.75 196.34 C 530.44 196.06 531.56 196.06 532.25 196.34 C 532.94 196.62 532.38 196.84 531.00 196.84 C 529.62 196.84 529.06 196.62 529.75 196.34 M 525.81 195.32 C 526.53 195.03 527.40 195.06 527.73 195.40 C 528.06 195.73 527.47 195.96 526.42 195.92 C 525.25 195.87 525.01 195.64 525.81 195.32 M 516.81 193.32 C 517.53 193.03 518.40 193.06 518.73 193.40 C 519.06 193.73 518.47 193.96 517.42 193.92 C 516.25 193.87 516.01 193.64 516.81 193.32 M 511.75 192.34 C 512.44 192.06 513.56 192.06 514.25 192.34 C 514.94 192.62 514.38 192.84 513.00 192.84 C 511.62 192.84 511.06 192.62 511.75 192.34 M 507.81 191.32 C 508.53 191.03 509.40 191.06 509.73 191.40 C 510.06 191.73 509.47 191.96 508.42 191.92 C 507.25 191.87 507.01 191.64 507.81 191.32 M 502.81 190.32 C 503.53 190.03 504.40 190.06 504.73 190.40 C 505.06 190.73 504.47 190.96 503.42 190.92 C 502.25 190.87 502.01 190.64 502.81 190.32 M 497.81 189.32 C 498.53 189.03 499.40 189.06 499.73 189.40 C 500.06 189.73 499.47 189.96 498.42 189.92 C 497.25 189.87 497.01 189.64 497.81 189.32 M 493.81 188.32 C 494.53 188.03 495.40 188.06 495.73 188.40 C 496.06 188.73 495.47 188.96 494.42 188.92 C 493.25 188.87 493.01 188.64 493.81 188.32 M 488.81 187.32 C 489.53 187.03 490.40 187.06 490.73 187.40 C 491.06 187.73 490.47 187.96 489.42 187.92 C 488.25 187.87 488.01 187.64 488.81 187.32 M 483.81 186.32 C 484.53 186.03 485.40 186.06 485.73 186.40 C 486.06 186.73 485.47 186.96 484.42 186.92 C 483.25 186.87 483.01 186.64 483.81 186.32 M 478.81 185.32 C 479.53 185.03 480.40 185.06 480.73 185.40 C 481.06 185.73 480.47 185.96 479.42 185.92 C 478.25 185.87 478.01 185.64 478.81 185.32 M 469.81 183.32 C 470.53 183.03 471.40 183.06 471.73 183.40 C 472.06 183.73 471.47 183.96 470.42 183.92 C 469.25 183.87 469.01 183.64 469.81 183.32 M 465.81 182.32 C 466.53 182.03 467.40 182.06 467.73 182.40 C 468.06 182.73 467.47 182.96 466.42 182.92 C 465.25 182.87 465.01 182.64 465.81 182.32 M 460.81 181.32 C 461.53 181.03 462.40 181.06 462.73 181.40 C 463.06 181.73 462.47 181.96 461.42 181.92 C 460.25 181.87 460.01 181.64 460.81 181.32 M 455.81 180.32 C 456.53 180.03 457.40 180.06 457.73 180.40 C 458.06 180.73 457.47 180.96 456.42 180.92 C 455.25 180.87 455.01 180.64 455.81 180.32 Z" stroke-linecap="round"/>
</g>
</g>
</g>
<g id="8JiEKyWrN15db80IyuS-Q">
<g style="">
		<g id="Z7KWHF-SWpIOaE5EJCoye">
<path style="stroke: rgb(193,193,193); stroke-width: 0; stroke-dasharray: none; stroke-linecap: butt; stroke-dashoffset: 0; stroke-linejoin: miter; stroke-miterlimit: 4; fill: rgb(0,0,0); fill-rule: nonzero; opacity: 1;" transform="matrix(0.420906 0 0 0.420906 1450.208656 698.642907) matrix(1 0 0 1 0 0)  translate(-520.234798, -500.000532)" d="M 416.64 917.77 C 416.90 917.35 416.40 917.00 415.52 917.00 C 409.68 917.00 401.58 909.18 396.10 898.25 C 394.38 894.81 392.53 892.00 391.99 892.00 C 391.44 892.00 391.05 891.66 391.12 891.25 C 391.45 889.15 390.88 887.96 389.85 888.60 C 389.17 889.02 388.96 888.87 389.35 888.24 C 390.28 886.74 389.00 883.88 387.74 884.66 C 387.16 885.02 386.95 884.88 387.28 884.36 C 388.09 883.05 380.55 869.80 379.52 870.74 C 379.06 871.16 379.00 870.95 379.38 870.28 C 379.77 869.59 379.22 868.31 378.13 867.38 C 377.06 866.46 376.35 865.21 376.57 864.60 C 377.15 862.98 364.51 840.84 363.52 841.74 C 363.06 842.16 362.97 842.00 363.32 841.38 C 363.99 840.20 352.37 818.00 351.08 818.00 C 350.67 818.00 350.33 817.38 350.33 816.62 C 350.33 814.21 317.69 757.07 316.67 757.70 C 316.12 758.04 316.01 757.80 316.41 757.15 C 317.33 755.65 312.99 747.89 311.68 748.70 C 311.14 749.03 310.99 748.82 311.36 748.22 C 312.30 746.71 305.08 733.83 303.75 734.65 C 303.16 735.02 302.98 734.84 303.35 734.24 C 304.21 732.85 303.04 729.86 301.91 730.56 C 301.42 730.86 301.25 730.51 301.53 729.77 C 301.81 729.04 301.33 727.56 300.45 726.47 C 299.57 725.39 299.18 725.13 299.58 725.90 C 300.06 726.84 299.91 727.07 299.14 726.59 C 298.49 726.19 298.20 725.48 298.49 725.02 C 299.32 723.68 297.90 720.95 296.74 721.66 C 296.16 722.02 295.97 721.85 296.32 721.29 C 297.15 719.94 291.39 709.37 289.41 708.61 C 288.57 708.28 288.15 707.56 288.49 707.01 C 289.27 705.76 285.93 699.93 284.83 700.61 C 284.39 700.88 284.32 700.33 284.68 699.39 C 285.16 698.13 284.99 697.89 284.02 698.49 C 283.13 699.03 282.93 698.92 283.40 698.16 C 284.17 696.92 281.70 692.64 280.76 693.57 C 280.45 693.88 280.27 693.54 280.35 692.82 C 280.54 691.11 268.73 670.05 267.87 670.58 C 267.52 670.80 267.29 670.42 267.36 669.74 C 267.58 667.74 249.63 637.11 248.61 637.74 C 248.11 638.05 247.99 637.82 248.36 637.23 C 249.22 635.83 240.89 621.95 239.64 622.72 C 239.12 623.04 239.00 622.81 239.38 622.19 C 240.28 620.74 224.94 593.92 223.66 594.71 C 223.13 595.04 222.99 594.83 223.35 594.25 C 223.71 593.66 222.22 590.10 220.04 586.34 C 217.86 582.58 213.71 575.37 210.83 570.32 C 207.94 565.27 205.15 561.40 204.63 561.73 C 204.12 562.05 204.01 561.79 204.40 561.16 C 205.28 559.74 202.64 555.73 201.50 556.76 C 201.05 557.17 200.98 556.98 201.34 556.34 C 202.27 554.73 201.02 551.87 199.74 552.66 C 199.16 553.02 198.96 552.88 199.28 552.35 C 200.09 551.05 193.60 539.74 192.61 540.72 C 192.18 541.15 191.98 541.05 192.15 540.50 C 192.61 539.07 189.91 532.94 189.05 533.47 C 188.66 533.71 188.33 533.35 188.33 532.67 C 188.33 530.83 176.87 511.00 175.80 511.00 C 175.30 511.00 175.10 510.64 175.37 510.20 C 176.12 508.99 170.48 499.87 169.52 500.74 C 169.06 501.16 168.96 501.01 169.31 500.40 C 170.02 499.15 138.65 443.78 137.65 444.52 C 137.29 444.78 137.22 444.71 137.48 444.35 C 138.30 443.25 132.78 434.02 131.70 434.68 C 131.09 435.06 131.00 434.80 131.49 434.02 C 132.00 433.19 131.43 432.02 129.89 430.78 C 128.58 429.70 128.11 429.14 128.85 429.53 C 129.94 430.10 129.98 429.83 129.06 428.12 C 128.44 426.95 127.50 426.00 126.96 426.00 C 126.43 426.00 126.09 425.66 126.20 425.25 C 126.57 423.86 124.86 419.97 124.09 420.44 C 123.68 420.70 123.33 420.31 123.33 419.56 C 123.33 417.21 104.70 386.07 103.68 386.70 C 103.13 387.04 103.01 386.80 103.40 386.16 C 104.28 384.74 101.64 380.73 100.50 381.76 C 100.05 382.17 99.98 381.97 100.35 381.33 C 101.21 379.83 92.92 365.93 91.64 366.72 C 91.12 367.04 91.00 366.81 91.38 366.19 C 92.25 364.79 81.60 346.76 80.49 347.76 C 80.05 348.17 79.98 347.97 80.35 347.33 C 81.14 345.95 77.29 339.00 75.73 339.00 C 75.15 339.00 74.96 338.71 75.32 338.35 C 76.06 337.60 74.04 333.95 58.29 307.58 C 52.07 297.17 46.49 286.83 45.89 284.60 C 44.23 278.43 45.18 268.28 47.92 262.83 C 52.85 253.04 59.37 248.33 76.50 242.17 C 97.89 234.48 151.00 214.98 190.00 200.49 C 211.72 192.42 230.29 185.58 231.25 185.29 C 232.23 185.00 233.00 183.79 233.00 182.54 C 233.00 177.83 237.16 164.15 240.92 156.50 C 250.48 137.05 265.79 122.58 286.00 113.91 C 298.70 108.47 305.95 106.87 320.50 106.33 C 332.09 105.90 334.55 106.12 343.18 108.35 C 359.02 112.44 371.26 119.34 383.50 131.09 L 390.50 137.80 L 406.50 132.00 C 457.94 113.34 535.36 85.49 540.50 83.79 C 548.28 81.22 557.62 81.27 566.09 83.92 C 573.90 86.36 577.79 89.81 585.18 100.80 C 594.76 115.07 640.13 178.94 669.14 219.00 C 717.71 286.07 789.24 382.12 827.40 431.50 C 836.75 443.60 852.71 464.30 862.88 477.50 C 883.88 504.78 911.62 540.65 920.87 552.50 C 927.67 561.20 979.55 628.28 987.24 638.31 C 998.13 652.51 998.12 668.81 987.21 679.72 C 985.29 681.64 979.17 685.40 973.61 688.06 C 962.90 693.19 908.25 716.77 861.31 736.52 C 845.80 743.04 833.39 748.81 833.71 749.34 C 834.04 749.88 833.82 750.01 833.22 749.64 C 831.72 748.71 818.93 754.08 819.69 755.32 C 820.05 755.88 819.80 755.99 819.12 755.57 C 817.62 754.65 777.99 771.17 778.75 772.40 C 779.06 772.90 778.82 773.01 778.23 772.64 C 777.64 772.28 766.43 776.54 753.33 782.12 C 740.22 787.70 727.83 792.94 725.78 793.77 C 723.73 794.60 722.28 795.64 722.54 796.07 C 722.81 796.51 722.51 797.19 721.86 797.59 C 721.13 798.04 720.96 797.88 721.40 797.15 C 721.80 796.52 721.84 796.00 721.49 796.00 C 719.70 796.00 706.00 802.33 706.00 803.15 C 706.00 803.68 705.59 803.87 705.09 803.56 C 703.81 802.76 700.90 804.03 701.56 805.09 C 701.86 805.58 701.49 805.74 700.73 805.45 C 699.98 805.16 686.80 810.28 671.43 816.83 C 656.07 823.38 635.85 831.99 626.50 835.97 C 617.15 839.95 609.27 843.50 609.00 843.85 C 608.73 844.21 607.83 844.63 607.00 844.79 C 603.02 845.56 593.12 850.39 593.68 851.29 C 594.05 851.90 593.81 852.00 593.08 851.55 C 591.49 850.57 568.90 860.03 569.71 861.33 C 570.05 861.88 569.79 861.99 569.12 861.57 C 567.79 860.75 566.39 861.33 493.00 892.76 C 464.12 905.13 439.15 915.67 437.50 916.18 C 433.50 917.41 416.04 918.74 416.64 917.77 M 490.00 856.03 C 517.23 844.38 549.40 830.65 561.50 825.52 C 573.60 820.39 592.73 812.29 604.00 807.50 C 615.27 802.72 658.70 784.41 700.50 766.82 C 769.24 737.89 816.22 718.02 875.00 693.02 C 886.27 688.23 908.10 678.98 923.50 672.47 C 938.90 665.96 951.84 660.35 952.25 660.01 C 952.67 659.67 952.43 658.61 951.73 657.65 C 950.54 656.02 949.94 656.14 942.72 659.43 C 938.46 661.37 917.32 670.44 895.74 679.59 C 874.16 688.73 847.73 699.94 837.00 704.49 C 816.49 713.19 741.93 744.65 677.00 772.00 C 611.88 799.43 564.08 819.67 500.50 846.75 C 466.95 861.04 438.53 873.03 437.35 873.40 C 434.35 874.34 435.33 878.40 438.39 877.70 C 439.55 877.43 462.77 867.68 490.00 856.03 M 437.12 863.10 C 439.53 862.05 459.73 853.45 482.00 843.99 C 504.27 834.53 526.08 825.23 530.45 823.33 C 544.76 817.10 668.18 765.13 701.00 751.50 C 710.62 747.51 727.73 740.31 739.00 735.51 C 750.27 730.71 768.95 722.83 780.50 718.00 C 834.16 695.57 944.00 648.29 944.00 647.62 C 944.00 647.33 918.30 613.77 868.49 549.00 C 862.36 541.02 850.88 525.95 842.98 515.50 C 816.07 479.88 772.59 422.53 762.53 409.38 C 753.29 397.30 737.26 375.78 685.89 306.50 C 675.29 292.20 659.94 271.27 651.78 260.00 C 634.26 235.79 623.45 220.90 599.91 188.62 C 590.33 175.49 580.52 161.99 578.09 158.62 C 572.22 150.47 554.80 126.71 553.95 125.68 C 553.57 125.23 538.02 130.48 519.38 137.33 C 483.44 150.56 449.20 162.93 442.39 165.16 L 438.28 166.50 L 447.12 180.00 C 456.87 194.89 457.85 198.24 453.71 202.38 C 452.45 203.64 449.41 205.42 446.96 206.32 C 401.69 223.00 336.50 247.26 307.50 258.22 C 287.15 265.91 267.63 273.17 264.13 274.35 L 257.76 276.48 L 253.37 271.64 C 247.76 265.43 237.43 252.05 230.13 241.53 C 225.33 234.61 224.11 233.42 222.46 234.06 C 209.45 239.10 113.98 275.05 106.50 277.73 C 101.00 279.69 96.15 281.61 95.72 281.98 C 94.86 282.73 113.49 315.70 149.98 378.00 C 178.90 427.39 208.28 478.10 247.01 545.50 C 263.13 573.55 284.95 611.35 295.50 629.50 C 321.01 673.37 351.00 725.63 365.51 751.50 C 382.02 780.94 425.90 857.84 428.41 861.74 C 430.86 865.53 431.35 865.61 437.12 863.10 M 258.02 248.49 C 259.63 247.66 261.39 246.14 261.94 245.12 C 262.88 243.36 262.73 243.33 259.22 244.59 C 253.46 246.64 246.72 246.36 243.63 243.93 C 241.39 242.16 241.00 242.10 241.00 243.48 C 241.00 244.37 242.19 246.20 243.65 247.55 C 246.78 250.45 253.39 250.89 258.02 248.49 M 246.00 230.20 C 246.00 229.38 244.70 224.61 243.10 219.60 C 235.90 196.98 237.16 176.50 246.95 157.09 C 260.38 130.50 290.59 112.58 322.00 112.60 C 339.25 112.61 353.25 116.98 367.92 126.94 C 383.22 137.34 397.93 158.00 403.03 176.27 C 404.58 181.83 404.85 182.21 405.48 179.82 C 407.21 173.24 397.80 152.76 387.50 140.69 C 370.64 120.93 347.25 109.68 323.00 109.66 C 293.58 109.64 267.05 122.65 250.40 145.24 C 234.56 166.74 230.47 192.46 238.60 219.50 C 240.09 224.45 241.51 229.99 241.77 231.80 C 242.21 234.96 242.31 235.03 244.12 233.40 C 245.15 232.46 246.00 231.02 246.00 230.20 M 254.00 231.62 C 254.00 231.41 253.21 230.63 252.25 229.87 C 250.66 228.63 250.63 228.66 251.87 230.25 C 253.18 231.92 254.00 232.45 254.00 231.62 M 257.00 228.00 C 257.82 227.47 258.05 227.03 257.50 227.03 C 256.95 227.03 255.82 227.47 255.00 228.00 C 254.18 228.53 253.95 228.97 254.50 228.97 C 255.05 228.97 256.18 228.53 257.00 228.00 M 266.50 224.39 C 268.91 223.29 269.01 223.14 267.00 223.63 C 265.62 223.97 263.15 224.86 261.50 225.61 C 259.09 226.71 258.99 226.86 261.00 226.37 C 262.38 226.03 264.85 225.14 266.50 224.39 M 319.61 204.86 C 346.25 194.88 367.88 186.54 367.67 186.34 C 367.30 185.97 270.90 221.78 270.08 222.59 C 268.91 223.74 274.88 221.61 319.61 204.86 M 245.68 209.81 C 245.36 209.01 245.13 209.25 245.08 210.42 C 245.04 211.47 245.27 212.06 245.60 211.73 C 245.94 211.40 245.97 210.53 245.68 209.81 M 258.20 203.39 C 262.76 201.96 277.52 196.83 291.00 192.00 C 304.48 187.17 331.02 177.71 350.00 170.97 C 368.98 164.24 384.91 158.36 385.41 157.91 C 386.36 157.05 380.25 148.51 375.32 143.81 L 372.50 141.12 L 340.50 152.10 C 322.90 158.13 296.11 167.52 280.96 172.96 C 265.82 178.40 252.20 183.16 250.71 183.54 C 248.16 184.18 248.00 184.55 248.01 189.86 C 248.02 195.63 249.03 206.00 249.59 206.00 C 249.76 206.00 253.63 204.83 258.20 203.39 M 243.68 196.81 C 243.36 196.01 243.13 196.25 243.08 197.42 C 243.04 198.47 243.27 199.06 243.60 198.73 C 243.94 198.40 243.97 197.53 243.68 196.81 M 411.30 196.27 L 414.50 194.54 L 406.18 193.90 C 401.61 193.55 397.35 192.75 396.73 192.13 C 396.11 191.51 395.24 191.00 394.80 191.00 C 393.25 191.00 394.02 193.12 396.45 195.55 C 399.47 198.56 406.44 198.90 411.30 196.27 M 264.50 172.23 C 269.45 170.53 277.55 167.91 282.50 166.42 C 287.45 164.92 291.95 163.36 292.50 162.96 C 293.05 162.55 302.05 159.40 312.50 155.96 C 322.95 152.51 332.18 149.46 333.00 149.18 C 333.82 148.90 334.73 148.63 335.00 148.57 C 335.27 148.52 335.95 148.19 336.50 147.85 C 338.96 146.31 366.37 138.10 367.38 138.59 C 367.99 138.90 367.15 137.98 365.50 136.56 C 362.02 133.57 350.15 128.79 341.50 126.90 C 331.77 124.77 313.92 125.24 304.60 127.85 C 287.97 132.53 274.08 140.74 263.52 152.15 C 257.97 158.14 252.00 168.72 250.42 175.34 C 249.74 178.19 249.74 178.19 252.62 176.76 C 254.20 175.97 259.55 173.93 264.50 172.23 M 428.00 171.00 C 428.82 170.47 429.05 170.03 428.50 170.03 C 427.95 170.03 426.82 170.47 426.00 171.00 C 425.18 171.53 424.95 171.97 425.50 171.97 C 426.05 171.97 427.18 171.53 428.00 171.00 Z" stroke-linecap="round"/>
</g>
</g>
</g>

  </svg>